<svg xmlns="http://www.w3.org/2000/svg" xmlns:xlink="http://www.w3.org/1999/xlink" width="1920" zoomAndPan="magnify" viewBox="0 0 1440 809.999993" height="1080" preserveAspectRatio="xMidYMid meet" version="1.0"><defs><clipPath id="92ef4b7f0c"><path d="M 271.273438 81 L 1169.023438 81 L 1169.023438 729 L 271.273438 729 Z M 271.273438 81 " clip-rule="nonzero"/></clipPath><clipPath id="c550baa693"><path d="M 290.40625 102.3125 L 449.40625 102.3125 L 449.40625 261.3125 L 290.40625 261.3125 Z M 290.40625 102.3125 " clip-rule="nonzero"/></clipPath><clipPath id="00f975bf88"><path d="M 1055.355469 21.964844 L 1157.355469 21.964844 L 1157.355469 123.964844 L 1055.355469 123.964844 Z M 1055.355469 21.964844 " clip-rule="nonzero"/></clipPath><clipPath id="ebdb197166"><path d="M 1094.664062 137.417969 L 1236.414062 137.417969 L 1236.414062 279 L 1094.664062 279 Z M 1094.664062 137.417969 " clip-rule="nonzero"/></clipPath><clipPath id="b58413ed3e"><path d="M 1185.15625 76.832031 L 1287.15625 76.832031 L 1287.15625 178.832031 L 1185.15625 178.832031 Z M 1185.15625 76.832031 " clip-rule="nonzero"/></clipPath><clipPath id="f3915721a2"><path d="M 1179.066406 21.964844 L 1230.066406 21.964844 L 1230.066406 72.964844 L 1179.066406 72.964844 Z M 1179.066406 21.964844 " clip-rule="nonzero"/></clipPath><clipPath id="29ca6cf436"><path d="M 1261.601562 171.46875 L 1312.601562 171.46875 L 1312.601562 222.46875 L 1261.601562 222.46875 Z M 1261.601562 171.46875 " clip-rule="nonzero"/></clipPath><clipPath id="3f51ea62d8"><path d="M 186 222.433594 L 557.230469 222.433594 L 557.230469 810 L 186 810 Z M 186 222.433594 " clip-rule="nonzero"/></clipPath><clipPath id="74836e0156"><path d="M 394.96875 82.457031 L 477.46875 82.457031 L 477.46875 164.957031 L 394.96875 164.957031 Z M 394.96875 82.457031 " clip-rule="nonzero"/></clipPath><clipPath id="43ac75ad1f"><path d="M 1287.082031 51.351562 L 1338.082031 51.351562 L 1338.082031 102.351562 L 1287.082031 102.351562 Z M 1287.082031 51.351562 " clip-rule="nonzero"/></clipPath></defs><rect x="-144" width="1728" fill="#ffffff" y="-80.999999" height="971.999992" fill-opacity="1"/><rect x="-144" width="1728" fill="#fec619" y="-80.999999" height="971.999992" fill-opacity="1"/><g clip-path="url(#92ef4b7f0c)"><path fill="#ffffff" d="M 271.273438 81 L 1169.023438 81 L 1169.023438 729 L 271.273438 729 Z M 271.273438 81 " fill-opacity="1" fill-rule="nonzero"/></g><g clip-path="url(#c550baa693)"><path fill="#fec619" d="M 369.882812 102.3125 C 362.136719 167.765625 355.859375 174.042969 290.40625 181.789062 C 290.542969 181.804688 290.675781 181.824219 290.8125 181.839844 L 290.816406 181.839844 C 355.882812 189.5625 362.152344 195.953125 369.882812 261.265625 C 377.628906 195.816406 383.910156 189.535156 449.359375 181.789062 C 383.910156 174.042969 377.628906 167.765625 369.882812 102.3125 Z M 369.882812 102.3125 " fill-opacity="1" fill-rule="nonzero"/></g><g clip-path="url(#00f975bf88)"><path fill="#29282e" d="M 1106.316406 21.964844 C 1101.347656 63.929688 1097.320312 67.957031 1055.355469 72.921875 C 1055.441406 72.933594 1055.527344 72.945312 1055.617188 72.953125 C 1097.335938 77.90625 1101.359375 82.003906 1106.316406 123.882812 C 1111.28125 81.917969 1115.308594 77.890625 1157.273438 72.921875 C 1115.308594 67.957031 1111.28125 63.929688 1106.316406 21.964844 Z M 1106.316406 21.964844 " fill-opacity="1" fill-rule="nonzero"/></g><g clip-path="url(#ebdb197166)"><path fill="#29282e" d="M 1165.386719 137.417969 C 1158.496094 195.660156 1152.90625 201.246094 1094.664062 208.140625 C 1094.785156 208.15625 1094.90625 208.167969 1095.023438 208.183594 L 1095.027344 208.183594 C 1152.929688 215.054688 1158.507812 220.742188 1165.386719 278.863281 C 1172.28125 220.621094 1177.867188 215.03125 1236.109375 208.140625 C 1177.867188 201.246094 1172.28125 195.660156 1165.386719 137.417969 Z M 1165.386719 137.417969 " fill-opacity="1" fill-rule="nonzero"/></g><g clip-path="url(#b58413ed3e)"><path fill="#ffffff" d="M 1236.113281 76.832031 C 1231.148438 118.796875 1227.121094 122.824219 1185.15625 127.789062 C 1185.242188 127.800781 1185.328125 127.8125 1185.414062 127.820312 L 1185.417969 127.824219 L 1185.417969 127.820312 C 1227.136719 132.773438 1231.160156 136.871094 1236.113281 178.75 C 1241.082031 136.785156 1245.105469 132.757812 1287.074219 127.789062 C 1245.105469 122.824219 1241.082031 118.796875 1236.113281 76.832031 Z M 1236.113281 76.832031 " fill-opacity="1" fill-rule="nonzero"/></g><g clip-path="url(#f3915721a2)"><path fill="#ffffff" d="M 1204.542969 21.964844 C 1202.058594 42.945312 1200.046875 44.957031 1179.066406 47.441406 C 1179.109375 47.445312 1179.152344 47.449219 1179.195312 47.457031 L 1179.199219 47.457031 C 1200.054688 49.933594 1202.066406 51.980469 1204.542969 72.917969 C 1207.027344 51.9375 1209.039062 49.921875 1230.019531 47.441406 C 1209.039062 44.957031 1207.027344 42.945312 1204.542969 21.964844 Z M 1204.542969 21.964844 " fill-opacity="1" fill-rule="nonzero"/></g><g clip-path="url(#29ca6cf436)"><path fill="#ffffff" d="M 1287.078125 171.46875 C 1284.59375 192.449219 1282.582031 194.464844 1261.601562 196.945312 C 1261.644531 196.953125 1261.6875 196.957031 1261.730469 196.960938 C 1282.589844 199.4375 1284.601562 201.488281 1287.078125 222.421875 C 1289.5625 201.441406 1291.574219 199.429688 1312.554688 196.945312 C 1291.574219 194.464844 1289.5625 192.449219 1287.078125 171.46875 Z M 1287.078125 171.46875 " fill-opacity="1" fill-rule="nonzero"/></g><path fill="#807aff" d="M 478.515625 324.671875 C 481.8125 339.636719 480.164062 353.082031 477.628906 357.011719 C 477.628906 357.011719 464.320312 328.351562 427.179688 309.960938 C 390.039062 291.574219 355.5625 310.722656 355.5625 310.722656 C 355.5625 310.722656 356.574219 280.917969 388.136719 272.800781 C 393.96875 266.589844 404.488281 259.234375 422.234375 258.597656 C 453.417969 257.457031 451.136719 251.75 458.234375 255.300781 C 465.332031 258.851562 464.574219 264.8125 464.574219 264.8125 C 464.574219 264.8125 469.261719 267.601562 473.824219 275.464844 C 478.515625 283.328125 472.050781 287.261719 477.5 298.167969 C 482.445312 307.679688 480.289062 320.234375 478.515625 324.671875 Z M 515.402344 504 C 494.613281 438.941406 435.292969 424.734375 435.292969 424.734375 L 389.277344 429.554688 C 389.277344 429.554688 379.519531 430.441406 366.460938 435.894531 C 354.167969 441.09375 339.210938 450.226562 327.039062 466.332031 C 301.941406 499.6875 291.042969 561.449219 288.761719 616.109375 C 288.507812 621.4375 288.253906 626.253906 287.746094 630.566406 C 283.816406 670.261719 271.902344 669.503906 267.972656 692.710938 C 263.664062 718.457031 283.816406 741.917969 283.816406 741.917969 L 514.261719 741.917969 C 514.261719 741.917969 528.457031 710.210938 514.261719 673.054688 C 500.191406 635.765625 536.191406 569.058594 515.402344 504 Z M 515.402344 504 " fill-opacity="1" fill-rule="nonzero"/><path fill="#76649b" d="M 366.460938 435.894531 C 354.167969 441.09375 339.210938 450.226562 327.039062 466.332031 C 301.941406 499.6875 291.042969 561.449219 288.761719 616.109375 C 288.507812 621.4375 288.253906 626.253906 287.746094 630.566406 C 259.226562 645.53125 209.789062 657.582031 187.734375 618.265625 C 160.480469 569.566406 194.832031 454.917969 194.832031 454.917969 L 272.914062 465.824219 L 265.816406 551.050781 C 265.816406 551.050781 272.28125 547.753906 299.660156 495.121094 C 326.40625 443.632812 364.6875 436.148438 366.460938 435.894531 Z M 477.628906 450.988281 C 477.628906 450.988281 460.769531 448.453125 456.460938 495.121094 C 452.148438 541.792969 463.558594 628.664062 463.558594 628.664062 C 463.558594 628.664062 458.234375 625.875 455.445312 632.976562 C 452.65625 640.078125 363.546875 624.734375 363.546875 624.734375 L 358.601562 714.398438 C 358.601562 714.398438 484.21875 743.4375 520.597656 704.632812 C 556.976562 665.824219 543.796875 573.496094 526.9375 520.484375 C 510.078125 467.472656 490.683594 459.613281 477.628906 450.988281 Z M 283.816406 741.789062 L 288.507812 760.6875 L 510.585938 764.363281 L 514.261719 741.789062 Z M 283.816406 741.789062 " fill-opacity="1" fill-rule="nonzero"/><path fill="#ff7074" d="M 173.03125 332.28125 L 233.492188 330 C 237.929688 329.871094 241.988281 332.15625 244.140625 336.085938 L 296.871094 433.234375 C 299.027344 437.289062 295.984375 442.109375 291.421875 441.855469 L 231.339844 439.066406 L 169.355469 339.128906 C 167.582031 336.214844 169.609375 332.410156 173.03125 332.28125 Z M 364.5625 575.019531 L 333 571.214844 L 337.179688 538.113281 C 337.433594 535.703125 335.40625 533.675781 333 533.929688 C 331.351562 534.183594 329.957031 535.449219 329.703125 537.101562 L 324.757812 570.199219 L 289.902344 566.015625 C 285.84375 565.507812 282.167969 568.550781 281.914062 572.738281 L 280.773438 594.296875 C 280.519531 598.226562 283.5625 601.523438 287.492188 601.777344 L 287.746094 601.777344 C 288 624.734375 288.761719 666.332031 289.140625 686.117188 C 289.265625 692.457031 294.085938 697.65625 300.296875 698.289062 L 333 701.714844 C 339.589844 702.347656 345.546875 697.910156 346.5625 691.441406 L 360.886719 606.726562 L 362.152344 606.851562 C 366.082031 607.105469 369.503906 604.0625 369.757812 600.128906 L 370.898438 582.628906 C 371.027344 578.699219 368.238281 575.398438 364.5625 575.019531 Z M 288.507812 760.6875 L 295.605469 837.160156 L 399.546875 837.160156 L 399.039062 811.035156 L 411.589844 837.160156 L 506.277344 837.160156 L 510.710938 764.363281 Z M 288.507812 760.6875 " fill-opacity="1" fill-rule="nonzero"/><path fill="#ffad92" d="M 469.261719 372.613281 C 462.417969 376.164062 455.828125 374.007812 452.277344 372.230469 C 447.839844 382.375 440.617188 391.253906 431.867188 398.101562 L 435.292969 424.609375 C 435.292969 424.609375 445.558594 431.457031 433.898438 439.953125 C 412.855469 455.300781 376.730469 452.253906 375.96875 444.011719 C 375.335938 437.671875 384.96875 431.710938 389.40625 429.300781 L 390.925781 411.417969 C 359.617188 409.898438 348.082031 384.660156 348.082031 352.066406 C 348.082031 318.457031 367.984375 284.722656 401.574219 284.722656 C 435.164062 284.722656 457.726562 314.527344 457.726562 348.136719 C 460.515625 344.332031 465.332031 339.636719 471.417969 342.933594 C 480.796875 348.261719 479.402344 367.410156 469.261719 372.613281 Z M 193.4375 458.34375 L 272.660156 470.390625 L 272.660156 452.890625 C 276.71875 430.570312 256.183594 429.046875 256.183594 429.046875 C 256.183594 429.046875 266.578125 415.859375 264.167969 408.375 C 260.621094 397.214844 251.746094 403.429688 251.746094 403.429688 C 251.746094 403.429688 257.199219 396.199219 253.140625 390.367188 C 249.085938 384.53125 241.480469 382.757812 241.480469 382.757812 C 241.480469 382.757812 246.675781 379.332031 243.507812 372.863281 C 240.464844 366.398438 224.496094 362.972656 213.464844 370.457031 C 202.4375 378.066406 196.859375 384.152344 196.859375 384.152344 C 196.859375 384.152344 192.425781 373.5 196.859375 370.074219 C 201.296875 366.652344 225.761719 347.5 206.875 346.484375 C 187.988281 345.472656 167.453125 368.171875 169.480469 381.109375 C 171.511719 394.042969 193.566406 437.542969 193.566406 437.542969 Z M 363.546875 624.859375 C 363.546875 624.859375 358.222656 614.460938 352.773438 609.132812 C 347.320312 603.808594 351.632812 597.722656 343.140625 595.820312 C 335.40625 594.167969 330.71875 605.710938 336.421875 617.378906 C 328.433594 615.730469 319.816406 614.460938 312.71875 614.460938 C 293.070312 614.207031 282.421875 623.71875 283.4375 631.960938 C 284.578125 640.207031 292.691406 638.558594 301.4375 635.765625 C 310.183594 632.976562 315.378906 634.371094 315.378906 634.371094 C 315.378906 634.371094 305.238281 637.667969 298.773438 647.433594 C 292.183594 657.328125 302.070312 664.046875 302.070312 664.046875 C 302.070312 664.046875 299.027344 667.09375 299.027344 674.703125 C 299.027344 682.3125 308.28125 685.863281 308.28125 685.863281 C 308.28125 685.863281 303.082031 693.21875 309.929688 701.207031 C 316.773438 709.070312 358.601562 714.269531 358.601562 714.269531 C 358.601562 714.269531 381.292969 649.082031 363.546875 624.859375 Z M 363.546875 624.859375 " fill-opacity="1" fill-rule="nonzero"/><g clip-path="url(#3f51ea62d8)"><path fill="#3f3e3e" d="M 475.09375 319.601562 C 474.585938 319.601562 474.078125 319.21875 473.824219 318.710938 C 463.8125 295.25 447.332031 280.539062 424.644531 274.957031 C 407.660156 270.773438 393.460938 273.5625 393.335938 273.5625 C 392.574219 273.691406 391.8125 273.183594 391.6875 272.421875 C 391.558594 271.660156 392.066406 270.898438 392.828125 270.773438 C 393.460938 270.648438 451.769531 259.484375 476.613281 317.570312 C 476.867188 318.332031 476.613281 319.09375 475.855469 319.472656 C 475.472656 319.601562 475.21875 319.601562 475.09375 319.601562 Z M 381.800781 355.492188 C 382.179688 354.855469 381.925781 353.96875 381.292969 353.589844 C 380.152344 352.953125 378.632812 351.050781 378.125 349.277344 C 377.996094 348.515625 377.996094 347.882812 378.378906 347.375 C 379.644531 345.597656 382.941406 346.105469 382.941406 346.105469 C 383.574219 346.234375 384.335938 345.851562 384.589844 345.21875 L 388.265625 334.566406 C 388.519531 333.804688 388.136719 333.042969 387.378906 332.789062 C 386.617188 332.535156 385.855469 332.917969 385.601562 333.675781 L 382.308594 343.316406 C 380.660156 343.1875 377.742188 343.441406 376.097656 345.851562 C 375.335938 346.992188 375.082031 348.386719 375.460938 350.039062 C 376.097656 352.699219 378.25 355.238281 380.027344 356.125 C 380.277344 356.25 380.53125 356.25 380.660156 356.25 C 381.167969 356.25 381.546875 355.996094 381.800781 355.492188 Z M 418.558594 326.957031 C 418.6875 322.898438 413.617188 322.390625 411.714844 325.941406 C 410.828125 327.714844 410.066406 330.253906 410.320312 333.804688 C 411.082031 342.175781 406.898438 341.667969 407.152344 348.640625 C 407.40625 355.617188 417.039062 354.222656 417.039062 342.554688 C 417.039062 335.707031 418.558594 330.253906 418.558594 326.957031 Z M 352.265625 325.179688 C 352.265625 325.179688 366.714844 309.960938 369.757812 297.277344 L 428.574219 302.859375 C 428.574219 302.859375 424.769531 332.917969 457.472656 348.261719 C 457.472656 348.261719 463.558594 340.90625 467.359375 341.921875 C 466.21875 312.625 444.925781 287.894531 416.023438 282.949219 C 413.363281 282.441406 410.574219 282.0625 407.785156 281.808594 C 366.082031 278.128906 352.519531 310.59375 352.265625 325.179688 Z M 375.335938 322.898438 C 375.460938 319.21875 370.773438 318.710938 369.125 322.007812 C 368.238281 323.660156 367.601562 325.941406 367.855469 329.113281 C 368.617188 336.722656 364.6875 336.339844 364.941406 342.554688 C 365.066406 348.894531 373.941406 347.628906 373.941406 336.972656 C 373.941406 330.886719 375.335938 325.8125 375.335938 322.898438 Z M 382.5625 313.640625 C 383.195312 313.132812 383.320312 312.246094 382.8125 311.609375 C 380.785156 308.691406 378.25 307.171875 375.460938 306.789062 C 371.152344 306.285156 367.855469 308.945312 367.730469 309.074219 C 367.097656 309.582031 367.097656 310.46875 367.601562 311.101562 C 368.109375 311.738281 368.996094 311.738281 369.632812 311.355469 C 369.632812 311.355469 372.167969 309.328125 375.207031 309.707031 C 377.238281 309.960938 379.011719 311.230469 380.53125 313.386719 C 380.785156 313.765625 381.292969 314.019531 381.671875 314.019531 C 382.054688 313.894531 382.308594 313.765625 382.5625 313.640625 Z M 422.742188 314.90625 C 423.25 314.273438 423.121094 313.386719 422.617188 312.878906 C 413.363281 305.140625 406.136719 312.878906 406.011719 313.003906 C 405.503906 313.640625 405.503906 314.527344 406.136719 315.035156 C 406.769531 315.542969 407.660156 315.542969 408.164062 314.90625 C 408.417969 314.652344 413.742188 309.074219 420.839844 315.035156 C 421.09375 315.289062 421.476562 315.414062 421.730469 315.414062 C 422.109375 315.414062 422.488281 315.160156 422.742188 314.90625 Z M 406.898438 362.59375 C 407.277344 361.957031 407.023438 361.070312 406.390625 360.691406 C 405.757812 360.308594 404.871094 360.5625 404.488281 361.199219 C 399.292969 370.710938 382.5625 368.171875 382.433594 368.171875 C 381.671875 368.046875 380.914062 368.554688 380.785156 369.3125 C 380.660156 370.074219 381.167969 370.835938 381.925781 370.964844 C 382.179688 370.964844 384.460938 371.34375 387.503906 371.34375 C 393.460938 371.34375 402.839844 370.074219 406.898438 362.59375 Z M 222.339844 389.984375 C 229.3125 381.488281 240.972656 384.277344 241.097656 384.277344 C 241.859375 384.40625 242.621094 384.027344 242.746094 383.265625 C 242.875 382.503906 242.492188 381.742188 241.734375 381.617188 C 241.226562 381.488281 228.296875 378.445312 220.058594 388.210938 C 219.550781 388.84375 219.675781 389.734375 220.183594 390.238281 C 220.4375 390.492188 220.820312 390.621094 221.070312 390.621094 C 221.707031 390.492188 222.085938 390.238281 222.339844 389.984375 Z M 237.171875 409.390625 C 242.113281 404.824219 251.621094 404.824219 251.746094 404.824219 C 252.507812 404.824219 253.140625 404.191406 253.140625 403.429688 C 253.140625 402.667969 252.507812 402.035156 251.746094 402.035156 C 251.238281 402.035156 241.097656 402.035156 235.269531 407.359375 C 234.636719 407.867188 234.636719 408.753906 235.140625 409.390625 C 235.394531 409.644531 235.777344 409.898438 236.15625 409.898438 C 236.535156 409.769531 236.917969 409.644531 237.171875 409.390625 Z M 262.394531 438.179688 C 262.394531 432.726562 257.324219 428.160156 257.070312 428.03125 C 256.4375 427.527344 255.550781 427.527344 255.042969 428.160156 C 254.535156 428.792969 254.535156 429.679688 255.167969 430.1875 C 255.167969 430.1875 259.480469 434.121094 259.480469 438.304688 C 259.480469 439.066406 260.113281 439.699219 260.875 439.699219 C 261.632812 439.699219 262.394531 438.941406 262.394531 438.179688 Z M 207.890625 452.003906 C 208.394531 451.496094 208.394531 450.605469 207.890625 449.972656 L 194.578125 436.53125 C 194.074219 436.023438 193.183594 436.023438 192.550781 436.53125 C 192.042969 437.039062 192.042969 437.925781 192.550781 438.558594 L 205.859375 452.003906 C 206.113281 452.253906 206.496094 452.382812 206.875 452.382812 C 207.253906 452.382812 207.636719 452.253906 207.890625 452.003906 Z M 197.621094 385.421875 C 198.253906 385.039062 198.507812 384.152344 198.128906 383.519531 C 194.074219 376.164062 196.609375 370.074219 206.367188 363.859375 C 207 363.480469 207.253906 362.59375 206.75 361.957031 C 206.367188 361.324219 205.480469 361.070312 204.847656 361.578125 C 193.820312 368.554688 190.902344 376.289062 195.59375 384.914062 C 195.847656 385.421875 196.355469 385.675781 196.859375 385.675781 C 197.113281 385.675781 197.367188 385.546875 197.621094 385.421875 Z M 475.472656 656.1875 C 476.105469 655.679688 476.234375 654.789062 475.726562 654.15625 C 464.445312 638.8125 459.882812 635.511719 459.753906 635.261719 C 459.121094 634.753906 458.234375 634.878906 457.855469 635.515625 C 457.347656 636.148438 457.472656 637.035156 458.109375 637.542969 C 458.109375 637.542969 462.671875 640.96875 473.570312 655.804688 C 473.824219 656.1875 474.332031 656.4375 474.714844 656.4375 C 474.964844 656.4375 475.21875 656.3125 475.472656 656.1875 Z M 492.078125 648.449219 C 492.710938 647.941406 492.710938 647.054688 492.207031 646.421875 C 478.769531 630.058594 464.320312 627.269531 463.683594 627.144531 C 462.925781 627.015625 462.164062 627.523438 462.039062 628.285156 C 461.910156 629.046875 462.417969 629.808594 463.179688 629.933594 C 463.304688 629.933594 477.25 632.722656 489.925781 648.195312 C 490.175781 648.578125 490.558594 648.703125 491.066406 648.703125 C 491.445312 648.828125 491.824219 648.703125 492.078125 648.449219 Z M 398.53125 671.40625 C 398.53125 671.277344 398.660156 671.152344 398.660156 671.023438 C 398.660156 670.769531 398.660156 670.515625 398.53125 670.261719 C 397.644531 646.292969 385.855469 628.15625 385.730469 627.90625 C 385.347656 627.269531 384.460938 627.015625 383.828125 627.523438 C 383.195312 627.90625 382.941406 628.792969 383.449219 629.425781 C 383.574219 629.554688 387.628906 635.894531 391.054688 645.914062 L 370.644531 643.375 C 369.886719 643.25 369.125 643.882812 369.125 644.644531 C 368.996094 645.40625 369.632812 646.167969 370.390625 646.167969 L 391.6875 648.828125 C 391.6875 648.828125 391.8125 648.828125 391.8125 648.828125 C 391.8125 648.828125 391.941406 648.828125 391.941406 648.828125 C 393.714844 654.789062 395.234375 661.765625 395.742188 669.375 L 369.632812 666.839844 C 368.871094 666.710938 368.109375 667.347656 368.109375 668.105469 C 367.984375 668.867188 368.617188 669.628906 369.378906 669.628906 L 395.871094 672.164062 C 395.996094 678 395.363281 684.214844 393.714844 690.554688 L 366.082031 687.257812 C 365.320312 687.128906 364.5625 687.765625 364.5625 688.523438 C 364.433594 689.285156 365.066406 690.046875 365.828125 690.046875 L 392.953125 693.34375 C 391.6875 697.785156 389.785156 702.222656 387.378906 706.660156 L 362.28125 701.96875 C 361.519531 701.839844 360.757812 702.347656 360.632812 703.109375 C 360.503906 703.871094 361.011719 704.632812 361.773438 704.757812 L 385.855469 709.199219 C 384.082031 712.113281 382.054688 715.03125 379.773438 717.820312 C 379.265625 718.457031 379.390625 719.34375 380.027344 719.851562 C 380.277344 720.105469 380.660156 720.105469 380.914062 720.105469 C 381.292969 720.105469 381.671875 719.976562 382.054688 719.597656 C 384.84375 716.171875 387.125 712.875 389.152344 709.449219 C 389.53125 709.199219 389.785156 708.945312 389.914062 708.4375 C 389.914062 708.308594 389.914062 708.183594 389.914062 708.054688 C 392.828125 702.855469 394.855469 697.785156 396.25 692.710938 C 396.378906 692.582031 396.378906 692.328125 396.378906 692.203125 C 396.378906 692.203125 396.378906 692.078125 396.378906 692.078125 C 398.023438 684.972656 398.660156 678 398.53125 671.40625 Z M 273.296875 576.542969 C 273.804688 569.4375 268.859375 564.113281 267.339844 562.589844 L 267.339844 551.050781 C 267.339844 550.289062 266.703125 549.65625 265.945312 549.65625 C 265.183594 549.65625 264.550781 550.289062 264.550781 551.050781 L 264.550781 563.226562 C 264.550781 563.605469 264.675781 563.984375 265.058594 564.238281 C 265.058594 564.238281 271.015625 569.566406 270.507812 576.414062 C 270.507812 577.175781 271.015625 577.808594 271.773438 577.9375 C 271.773438 577.9375 271.902344 577.9375 271.902344 577.9375 C 272.535156 577.9375 273.167969 577.300781 273.296875 576.542969 Z M 270.761719 493.726562 L 265.058594 492.839844 L 267.210938 470.898438 C 267.339844 470.136719 266.703125 469.375 265.945312 469.375 C 265.183594 469.25 264.421875 469.882812 264.421875 470.644531 L 262.269531 492.457031 L 248.957031 490.175781 L 250.988281 466.96875 C 251.113281 466.207031 250.480469 465.445312 249.71875 465.445312 C 248.957031 465.320312 248.199219 465.953125 248.199219 466.714844 L 246.167969 489.667969 L 226.902344 486.496094 L 230.707031 463.921875 C 230.832031 463.164062 230.324219 462.402344 229.566406 462.273438 C 228.804688 462.148438 228.042969 462.65625 227.917969 463.417969 L 224.113281 485.992188 L 204.339844 482.820312 L 208.394531 460.5 C 208.523438 459.738281 208.015625 458.976562 207.253906 458.851562 C 206.496094 458.722656 205.734375 459.230469 205.609375 459.992188 L 201.550781 482.3125 L 188.242188 480.15625 C 187.480469 480.03125 186.722656 480.539062 186.59375 481.296875 C 186.46875 482.058594 186.972656 482.820312 187.734375 482.945312 L 202.4375 485.355469 L 225 489.035156 L 270.253906 496.390625 C 270.378906 496.390625 270.378906 496.390625 270.507812 496.390625 C 271.140625 496.390625 271.773438 495.882812 271.902344 495.25 C 272.027344 494.488281 271.519531 493.851562 270.761719 493.726562 Z M 411.335938 837.160156 C 412.09375 836.90625 412.476562 836.144531 412.222656 835.386719 C 404.488281 809.511719 377.996094 786.558594 376.984375 785.542969 C 376.347656 785.035156 375.460938 785.035156 374.957031 785.671875 C 374.449219 786.304688 374.574219 787.191406 375.082031 787.699219 C 375.335938 787.953125 401.953125 811.164062 409.558594 836.273438 C 409.6875 836.90625 410.320312 837.289062 410.953125 837.289062 C 411.082031 837.160156 411.207031 837.160156 411.335938 837.160156 Z M 502.980469 759.164062 C 502.980469 758.402344 502.347656 757.769531 501.585938 757.769531 C 496.261719 757.769531 493.601562 755.742188 490.8125 753.710938 C 487.769531 751.429688 484.726562 749.144531 478.390625 749.144531 C 478.261719 749.144531 478.261719 749.144531 478.136719 749.144531 C 472.050781 749.144531 468.882812 751.429688 465.839844 753.585938 C 463.050781 755.613281 460.390625 757.390625 455.191406 757.390625 C 455.066406 757.390625 455.066406 757.390625 454.9375 757.390625 C 449.613281 757.390625 446.953125 755.359375 444.164062 753.332031 C 441.121094 751.046875 438.082031 748.765625 431.742188 748.765625 C 425.53125 748.765625 422.363281 750.921875 419.320312 753.203125 C 416.53125 755.234375 413.871094 757.007812 408.671875 757.007812 C 408.546875 757.007812 408.546875 757.007812 408.417969 757.007812 C 403.09375 757.007812 400.433594 754.980469 397.644531 752.949219 C 394.601562 750.667969 391.558594 748.386719 385.222656 748.386719 C 379.011719 748.386719 375.84375 750.542969 372.800781 752.824219 C 370.011719 754.851562 367.351562 756.753906 362.027344 756.628906 C 356.703125 756.628906 354.039062 754.597656 351.25 752.570312 C 348.210938 750.289062 345.167969 748.003906 338.828125 748.003906 C 338.703125 748.003906 338.703125 748.003906 338.574219 748.003906 C 332.492188 748.003906 329.324219 750.289062 326.40625 752.445312 C 323.617188 754.472656 320.957031 756.25 315.757812 756.25 C 315.632812 756.25 315.632812 756.25 315.507812 756.25 C 310.183594 756.25 307.519531 754.21875 304.730469 752.191406 C 301.691406 749.90625 298.648438 747.625 292.308594 747.625 C 291.550781 747.625 290.914062 748.257812 290.914062 749.019531 C 290.914062 749.78125 291.550781 750.414062 292.308594 750.414062 C 297.632812 750.414062 300.296875 752.445312 303.082031 754.472656 C 306.125 756.753906 309.167969 759.039062 315.507812 759.039062 C 321.71875 759.039062 324.886719 756.882812 327.929688 754.597656 C 330.71875 752.570312 333.378906 750.667969 338.703125 750.792969 C 344.027344 750.792969 346.6875 752.824219 349.476562 754.851562 C 352.519531 757.136719 355.5625 759.417969 361.898438 759.417969 C 368.109375 759.417969 371.277344 757.261719 374.320312 754.980469 C 377.109375 752.949219 379.773438 751.046875 385.097656 751.175781 C 390.417969 751.175781 393.082031 753.203125 395.871094 755.234375 C 398.914062 757.515625 401.953125 759.800781 408.292969 759.800781 C 408.417969 759.800781 408.417969 759.800781 408.546875 759.800781 C 414.628906 759.800781 417.800781 757.515625 420.714844 755.359375 C 423.503906 753.332031 426.164062 751.554688 431.363281 751.554688 C 431.488281 751.554688 431.488281 751.554688 431.617188 751.554688 C 436.9375 751.554688 439.601562 753.585938 442.390625 755.613281 C 445.433594 757.898438 448.472656 760.179688 454.8125 760.179688 C 454.9375 760.179688 454.9375 760.179688 455.066406 760.179688 C 461.148438 760.179688 464.320312 757.898438 467.359375 755.742188 C 470.148438 753.710938 472.8125 751.808594 478.136719 751.9375 C 483.460938 751.9375 486.121094 753.964844 488.910156 755.996094 C 491.953125 758.277344 494.996094 760.558594 501.332031 760.558594 C 502.347656 760.558594 502.980469 759.925781 502.980469 759.164062 Z M 515.402344 694.992188 C 528.332031 678.761719 534.414062 634.5 530.613281 585.039062 C 526.429688 530.757812 511.472656 483.199219 490.558594 457.835938 C 490.050781 457.203125 489.164062 457.203125 488.53125 457.582031 C 487.894531 458.089844 487.894531 458.976562 488.277344 459.613281 C 534.289062 515.414062 538.980469 660.625 513.121094 693.21875 C 487.769531 725.304688 400.179688 704.503906 399.292969 704.25 C 398.53125 704.125 397.769531 704.503906 397.644531 705.265625 C 397.519531 706.027344 397.898438 706.789062 398.660156 706.914062 C 400.6875 707.421875 428.191406 713.890625 456.839844 713.890625 C 479.910156 714.144531 503.613281 709.957031 515.402344 694.992188 Z M 473.953125 355.492188 L 468.5 351.8125 C 465.078125 349.53125 460.515625 351.179688 459.25 354.984375 C 458.234375 358.152344 459.753906 361.453125 462.925781 362.71875 C 464.191406 363.226562 465.332031 363.859375 466.09375 364.496094 C 467.488281 365.890625 465.964844 370.457031 464.445312 374.132812 C 463.8125 375.65625 464.066406 377.304688 464.953125 378.570312 L 463.8125 381.871094 C 463.304688 383.136719 464.066406 384.40625 465.207031 384.914062 C 466.347656 385.292969 467.742188 384.785156 468.121094 383.644531 L 469.515625 380.472656 C 471.164062 380.222656 472.558594 379.078125 473.066406 377.429688 L 477.375 364.621094 C 478.261719 361.199219 476.996094 357.519531 473.953125 355.492188 Z M 466.347656 385.421875 C 466.601562 384.660156 466.21875 383.898438 465.460938 383.644531 C 464.699219 383.390625 463.9375 383.773438 463.683594 384.53125 C 463.433594 385.167969 450.882812 418.773438 430.222656 449.972656 C 421.980469 454.03125 413.488281 455.933594 408.417969 456.820312 C 389.53125 460.117188 373.8125 457.457031 370.265625 453.015625 C 368.238281 450.605469 367.476562 448.199219 367.855469 445.535156 C 368.742188 439.066406 376.476562 433.738281 376.476562 433.738281 C 377.109375 433.359375 377.238281 432.472656 376.855469 431.835938 C 376.476562 431.203125 375.589844 431.078125 374.957031 431.457031 C 374.574219 431.710938 366.207031 437.417969 365.066406 445.152344 C 364.5625 448.578125 365.574219 451.875 368.109375 454.917969 C 371.40625 458.976562 380.660156 461.132812 391.941406 461.132812 C 397.265625 461.132812 403.09375 460.625 408.925781 459.613281 C 413.363281 458.851562 420.207031 457.328125 427.304688 454.410156 C 410.066406 479.394531 387.757812 501.589844 362.785156 502.476562 C 360.886719 496.261719 350.871094 460.117188 362.660156 400.257812 C 365.195312 402.796875 368.238281 404.949219 371.660156 406.851562 C 376.984375 409.769531 382.941406 411.292969 389.40625 411.671875 L 387.882812 429.554688 C 387.757812 430.316406 388.390625 430.949219 389.152344 431.078125 C 389.152344 431.078125 389.277344 431.078125 389.277344 431.078125 C 390.039062 431.078125 390.671875 430.570312 390.671875 429.808594 L 392.195312 411.925781 C 392.195312 411.800781 392.195312 411.800781 392.195312 411.671875 C 402.335938 411.671875 413.871094 408.628906 426.546875 402.667969 C 427.304688 402.289062 427.558594 401.527344 427.179688 400.765625 C 426.800781 400.003906 426.039062 399.75 425.277344 400.132812 C 403.984375 410.152344 386.238281 411.671875 372.800781 404.445312 C 353.28125 393.917969 349.222656 368.171875 349.222656 367.917969 C 349.097656 367.15625 348.335938 366.652344 347.574219 366.777344 C 346.816406 366.90625 346.308594 367.664062 346.433594 368.425781 C 346.5625 369.3125 349.097656 385.546875 360.125 397.847656 C 346.941406 462.273438 358.855469 500.320312 360.25 504.125 C 359.617188 508.820312 351.757812 564.746094 325.011719 564.746094 C 324.632812 564.746094 324.253906 564.746094 323.871094 564.746094 C 306.253906 563.730469 297.886719 521.628906 291.167969 487.894531 C 286.730469 465.699219 282.929688 446.421875 277.097656 440.335938 C 276.589844 439.828125 275.703125 439.699219 275.070312 440.335938 C 274.5625 440.839844 274.4375 441.730469 275.070312 442.363281 C 280.265625 447.945312 284.195312 467.601562 288.378906 488.527344 C 295.605469 525.050781 303.84375 566.523438 323.746094 567.664062 C 324.253906 567.664062 324.632812 567.664062 325.011719 567.664062 C 353.28125 567.664062 361.644531 514.398438 362.914062 505.394531 C 386.238281 504.507812 409.558594 486.75 432.375 452.253906 C 440.867188 447.945312 448.980469 441.347656 452.53125 431.457031 C 452.785156 430.695312 452.402344 429.933594 451.644531 429.679688 C 450.882812 429.429688 450.121094 429.808594 449.867188 430.570312 C 447.207031 437.925781 441.757812 443.25 435.546875 447.183594 C 435.925781 446.546875 436.433594 445.914062 436.8125 445.152344 C 455.191406 415.476562 466.21875 385.675781 466.347656 385.421875 Z M 291.421875 324.800781 L 311.195312 311.992188 C 311.578125 311.738281 311.828125 311.230469 311.828125 310.722656 C 311.828125 310.214844 311.578125 309.835938 311.195312 309.582031 L 291.421875 298.039062 C 291.042969 297.785156 290.40625 297.785156 290.027344 298.039062 C 289.648438 298.292969 289.265625 298.800781 289.265625 299.308594 L 289.265625 323.660156 C 289.265625 324.164062 289.519531 324.671875 290.027344 324.925781 C 290.28125 325.054688 290.40625 325.054688 290.660156 325.054688 C 290.914062 325.054688 291.167969 324.925781 291.421875 324.800781 Z M 307.648438 310.976562 L 292.054688 321.121094 L 292.054688 301.71875 Z M 557.230469 307.550781 C 557.230469 308.058594 556.976562 308.441406 556.597656 308.820312 L 536.824219 321.503906 C 536.570312 321.628906 536.316406 321.757812 536.0625 321.757812 C 535.808594 321.757812 535.554688 321.757812 535.429688 321.628906 C 534.921875 321.375 534.667969 320.867188 534.667969 320.359375 L 534.667969 310.214844 L 517.050781 321.628906 C 516.796875 321.757812 516.542969 321.882812 516.289062 321.882812 C 516.035156 321.882812 515.78125 321.882812 515.65625 321.757812 C 515.148438 321.503906 514.894531 320.996094 514.894531 320.488281 L 514.894531 296.011719 C 514.894531 295.503906 515.148438 294.996094 515.65625 294.742188 C 516.035156 294.488281 516.667969 294.488281 517.050781 294.742188 L 534.667969 305.140625 L 534.667969 296.011719 C 534.667969 295.503906 534.921875 294.996094 535.429688 294.742188 C 535.808594 294.488281 536.445312 294.488281 536.824219 294.742188 L 556.597656 306.285156 C 556.976562 306.539062 557.230469 307.042969 557.230469 307.550781 Z M 533.402344 307.679688 L 517.808594 298.546875 L 517.808594 317.699219 Z M 553.050781 307.679688 L 537.457031 298.546875 L 537.457031 317.699219 Z M 353.785156 227.527344 C 353.785156 227.398438 353.785156 227.398438 353.785156 227.273438 L 353.785156 226.257812 C 353.785156 224.355469 352.140625 222.707031 350.238281 222.707031 L 326.660156 222.707031 C 324.757812 222.707031 323.113281 224.355469 323.113281 226.257812 L 323.113281 247.183594 C 321.84375 246.296875 320.195312 245.789062 318.421875 245.789062 C 314.363281 245.789062 311.070312 248.707031 311.070312 252.382812 C 311.070312 256.0625 314.363281 258.980469 318.421875 258.980469 C 322.222656 258.980469 325.394531 256.441406 325.773438 253.019531 C 325.773438 252.890625 325.898438 252.765625 325.898438 252.636719 L 325.898438 236.152344 L 350.996094 236.152344 L 350.996094 247.3125 C 349.730469 246.421875 348.082031 245.917969 346.433594 245.917969 C 342.378906 245.917969 339.082031 248.832031 339.082031 252.511719 C 339.082031 256.1875 342.378906 259.105469 346.433594 259.105469 C 350.238281 259.105469 353.40625 256.441406 353.785156 253.144531 C 353.785156 253.019531 353.914062 252.890625 353.914062 252.765625 L 353.914062 227.527344 Z M 516.921875 375.78125 L 516.921875 395.441406 C 518.570312 396.582031 519.710938 398.484375 519.710938 400.511719 C 519.710938 400.765625 519.710938 400.894531 519.710938 401.148438 C 519.710938 401.019531 519.839844 400.894531 519.839844 400.765625 L 519.839844 384.277344 L 517.050781 384.277344 L 517.050781 375.78125 Z M 547.597656 375.78125 C 547.597656 375.65625 547.597656 375.65625 547.597656 375.527344 L 547.597656 384.277344 L 544.808594 384.277344 L 544.808594 395.441406 C 546.457031 396.582031 547.597656 398.484375 547.597656 400.511719 C 547.597656 400.765625 547.597656 400.894531 547.597656 401.148438 C 547.597656 401.019531 547.726562 400.894531 547.726562 400.765625 L 547.726562 375.78125 Z M 518.316406 402.160156 C 517.558594 402.160156 516.921875 401.527344 516.921875 400.765625 L 516.921875 395.441406 C 515.65625 394.550781 514.007812 394.042969 512.234375 394.042969 C 508.175781 394.042969 504.882812 396.960938 504.882812 400.640625 C 504.882812 404.316406 508.175781 407.234375 512.234375 407.234375 C 516.035156 407.234375 519.203125 404.699219 519.585938 401.273438 C 519.457031 401.78125 518.953125 402.160156 518.316406 402.160156 Z M 516.921875 395.441406 L 516.921875 400.765625 C 516.921875 401.527344 517.558594 402.160156 518.316406 402.160156 C 518.953125 402.160156 519.457031 401.78125 519.585938 401.148438 C 519.585938 400.894531 519.585938 400.765625 519.585938 400.511719 C 519.710938 398.484375 518.570312 396.707031 516.921875 395.441406 Z M 546.203125 402.160156 C 545.445312 402.160156 544.808594 401.527344 544.808594 400.765625 L 544.808594 395.441406 C 543.542969 394.550781 541.894531 394.042969 540.246094 394.042969 C 536.191406 394.042969 532.894531 396.960938 532.894531 400.640625 C 532.894531 404.316406 536.191406 407.234375 540.246094 407.234375 C 544.050781 407.234375 547.21875 404.570312 547.597656 401.273438 C 547.34375 401.78125 546.835938 402.160156 546.203125 402.160156 Z M 544.808594 395.441406 L 544.808594 400.765625 C 544.808594 401.527344 545.445312 402.160156 546.203125 402.160156 C 546.839844 402.160156 547.34375 401.78125 547.472656 401.148438 C 547.472656 400.894531 547.472656 400.765625 547.472656 400.511719 C 547.597656 398.484375 546.457031 396.707031 544.808594 395.441406 Z M 546.203125 374.386719 C 546.964844 374.386719 547.472656 374.894531 547.597656 375.527344 L 547.597656 374.515625 C 547.597656 372.613281 545.949219 370.960938 544.050781 370.960938 L 520.472656 370.960938 C 518.570312 370.960938 516.921875 372.613281 516.921875 374.515625 L 516.921875 375.78125 C 516.921875 375.019531 517.558594 374.386719 518.316406 374.386719 C 519.078125 374.386719 519.710938 375.019531 519.710938 375.78125 L 519.710938 384.277344 L 544.808594 384.277344 L 544.808594 375.78125 C 544.808594 375.019531 545.445312 374.386719 546.203125 374.386719 Z M 518.316406 374.386719 C 517.558594 374.386719 516.921875 375.019531 516.921875 375.78125 L 516.921875 384.277344 L 519.710938 384.277344 L 519.710938 375.78125 C 519.710938 375.019531 519.078125 374.386719 518.316406 374.386719 Z M 547.597656 375.527344 C 547.472656 374.894531 546.964844 374.386719 546.203125 374.386719 C 545.445312 374.386719 544.808594 375.019531 544.808594 375.78125 L 544.808594 384.277344 L 547.597656 384.277344 Z M 519.964844 227.78125 C 519.964844 224.863281 517.683594 222.582031 514.769531 222.582031 L 501.710938 222.582031 L 501.710938 257.203125 C 500.445312 256.316406 498.921875 255.808594 497.148438 255.808594 C 493.09375 255.808594 489.796875 258.726562 489.796875 262.402344 C 489.796875 266.082031 493.09375 268.996094 497.148438 268.996094 C 501.207031 268.996094 504.5 266.082031 504.5 262.402344 L 504.5 235.136719 L 519.964844 235.136719 Z M 327.167969 604.441406 C 327.167969 603.679688 326.660156 603.046875 325.898438 602.921875 L 287.492188 600.382812 C 286.730469 600.382812 286.097656 600.890625 285.972656 601.652344 C 285.84375 602.414062 286.480469 603.046875 287.238281 603.175781 L 325.648438 605.710938 C 325.648438 605.710938 325.648438 605.710938 325.773438 605.710938 C 326.535156 605.710938 327.167969 605.203125 327.167969 604.441406 Z M 303.082031 665.191406 C 303.210938 665.0625 311.195312 657.199219 318.546875 656.4375 C 319.308594 656.3125 319.941406 655.679688 319.816406 654.917969 C 319.6875 654.15625 319.054688 653.523438 318.292969 653.648438 C 310.054688 654.535156 301.5625 662.78125 301.183594 663.160156 C 300.675781 663.667969 300.675781 664.554688 301.183594 665.191406 C 301.4375 665.445312 301.816406 665.570312 302.195312 665.570312 C 302.449219 665.570312 302.832031 665.445312 303.082031 665.191406 Z M 309.546875 686.875 C 309.546875 686.875 312.972656 681.804688 322.351562 680.535156 C 323.113281 680.410156 323.617188 679.648438 323.492188 678.886719 C 323.363281 678.125 322.605469 677.617188 321.84375 677.746094 C 311.195312 679.394531 307.265625 685.101562 307.140625 685.355469 C 306.757812 685.988281 306.886719 686.875 307.519531 687.257812 C 307.773438 687.382812 308.027344 687.511719 308.28125 687.511719 C 308.914062 687.382812 309.292969 687.257812 309.546875 686.875 Z M 354.421875 621.816406 C 354.675781 621.054688 354.292969 620.296875 353.53125 620.042969 C 343.011719 616.492188 336.800781 616.109375 336.546875 616.109375 C 335.789062 616.109375 335.152344 616.617188 335.027344 617.378906 C 335.027344 618.140625 335.535156 618.773438 336.292969 618.898438 C 336.292969 618.898438 342.378906 619.28125 352.519531 622.703125 C 352.644531 622.703125 352.773438 622.832031 353.027344 622.832031 C 353.660156 622.703125 354.292969 622.324219 354.421875 621.816406 Z M 290.789062 639.445312 C 295.984375 639.316406 300.167969 637.921875 303.972656 636.78125 C 308.28125 635.386719 311.578125 634.371094 315 635.765625 C 315.757812 636.019531 316.519531 635.765625 316.898438 635.007812 C 317.152344 634.246094 316.898438 633.484375 316.140625 633.105469 C 311.828125 631.328125 307.773438 632.597656 303.210938 634.117188 C 299.660156 635.261719 295.730469 636.527344 290.914062 636.65625 C 288.253906 636.65625 286.480469 636.148438 285.589844 634.753906 C 284.070312 632.597656 285.210938 628.664062 285.71875 627.398438 C 285.972656 626.636719 285.71875 625.875 284.957031 625.496094 C 284.195312 625.242188 283.4375 625.496094 283.054688 626.253906 C 282.929688 626.507812 280.519531 632.34375 283.183594 636.273438 C 284.578125 638.304688 286.984375 639.316406 290.535156 639.316406 C 290.535156 639.445312 290.660156 639.445312 290.789062 639.445312 Z M 298.140625 652.761719 C 298.140625 647.179688 313.351562 636.78125 322.859375 631.582031 C 323.492188 631.203125 323.746094 630.3125 323.363281 629.679688 C 322.984375 629.046875 322.097656 628.792969 321.464844 629.171875 C 318.800781 630.695312 295.351562 643.757812 295.351562 652.886719 C 295.351562 653.648438 295.984375 654.285156 296.746094 654.285156 C 297.507812 654.285156 298.140625 653.523438 298.140625 652.761719 Z M 298.140625 652.761719 " fill-opacity="1" fill-rule="nonzero"/></g><path fill="#ffffff" d="M 422.488281 335.832031 C 422.363281 337.101562 420.714844 337.988281 418.8125 337.863281 C 416.785156 337.734375 415.265625 336.722656 415.390625 335.453125 C 415.515625 334.183594 417.164062 333.296875 419.066406 333.421875 C 421.09375 333.421875 422.617188 334.566406 422.488281 335.832031 Z M 375.84375 328.605469 C 374.066406 328.476562 372.546875 329.367188 372.421875 330.507812 C 372.421875 331.648438 373.8125 332.664062 375.589844 332.789062 C 377.363281 332.917969 378.882812 332.027344 379.011719 330.886719 C 379.136719 329.746094 377.617188 328.730469 375.84375 328.605469 Z M 375.84375 328.605469 " fill-opacity="1" fill-rule="nonzero"/><g clip-path="url(#74836e0156)"><path fill="#fec619" d="M 436.398438 82.457031 C 432.363281 116.578125 429.089844 119.851562 394.96875 123.890625 C 395.039062 123.898438 395.109375 123.90625 395.179688 123.914062 C 429.101562 127.941406 432.371094 131.273438 436.398438 165.320312 C 440.4375 131.203125 443.710938 127.929688 477.832031 123.890625 C 443.710938 119.851562 440.4375 116.578125 436.398438 82.457031 Z M 436.398438 82.457031 " fill-opacity="1" fill-rule="nonzero"/></g><g clip-path="url(#43ac75ad1f)"><path fill="#ffffff" d="M 1312.558594 51.351562 C 1310.078125 72.332031 1308.0625 74.34375 1287.082031 76.828125 C 1287.128906 76.832031 1287.167969 76.835938 1287.214844 76.839844 L 1287.214844 76.84375 C 1308.070312 79.316406 1310.082031 81.367188 1312.558594 102.304688 C 1315.042969 81.320312 1317.054688 79.308594 1338.035156 76.828125 C 1317.054688 74.34375 1315.042969 72.332031 1312.558594 51.351562 Z M 1312.558594 51.351562 " fill-opacity="1" fill-rule="nonzero"/></g></svg>