<svg xmlns="http://www.w3.org/2000/svg" xmlns:xlink="http://www.w3.org/1999/xlink" width="1144" zoomAndPan="magnify" viewBox="0 0 858 629.999998" height="840" preserveAspectRatio="xMidYMid meet" version="1.0"><defs><clipPath id="fa881cc0f3"><path d="M 85.613281 45.617188 L 779.363281 45.617188 L 779.363281 546.617188 L 85.613281 546.617188 Z M 85.613281 45.617188 " clip-rule="nonzero"/></clipPath><clipPath id="06f8baacb0"><path d="M 100.398438 62.089844 L 223.398438 62.089844 L 223.398438 185 L 100.398438 185 Z M 100.398438 62.089844 " clip-rule="nonzero"/></clipPath><clipPath id="dba5f2cc12"><path d="M 669.796875 22.707031 L 748.546875 22.707031 L 748.546875 101.457031 L 669.796875 101.457031 Z M 669.796875 22.707031 " clip-rule="nonzero"/></clipPath><clipPath id="c25eabae40"><path d="M 709.179688 78.761719 L 818.679688 78.761719 L 818.679688 188.261719 L 709.179688 188.261719 Z M 709.179688 78.761719 " clip-rule="nonzero"/></clipPath><clipPath id="09ef483124"><path d="M 779.105469 39.382812 L 857.855469 39.382812 L 857.855469 118.132812 L 779.105469 118.132812 Z M 779.105469 39.382812 " clip-rule="nonzero"/></clipPath><clipPath id="55a3099691"><path d="M 739.722656 0 L 779.472656 0 L 779.472656 39.75 L 739.722656 39.75 Z M 739.722656 0 " clip-rule="nonzero"/></clipPath><clipPath id="8b741347d0"><path d="M 6 237 L 271 237 L 271 629.660156 L 6 629.660156 Z M 6 237 " clip-rule="nonzero"/></clipPath><clipPath id="5b3c5e8a5c"><path d="M 20 155 L 306.75 155 L 306.75 629.660156 L 20 629.660156 Z M 20 155 " clip-rule="nonzero"/></clipPath><clipPath id="98c86f63bc"><path d="M 181.195312 46.746094 L 244.945312 46.746094 L 244.945312 110.496094 L 181.195312 110.496094 Z M 181.195312 46.746094 " clip-rule="nonzero"/></clipPath><clipPath id="25ad1c8384"><path d="M 818.488281 6.238281 L 858 6.238281 L 858 45.988281 L 818.488281 45.988281 Z M 818.488281 6.238281 " clip-rule="nonzero"/></clipPath></defs><g clip-path="url(#fa881cc0f3)"><path fill="#ffffff" d="M 85.613281 45.617188 L 779.363281 45.617188 L 779.363281 546.617188 L 85.613281 546.617188 Z M 85.613281 45.617188 " fill-opacity="1" fill-rule="nonzero"/></g><g clip-path="url(#06f8baacb0)"><path fill="#fec619" d="M 161.816406 62.089844 C 155.828125 112.667969 150.976562 117.519531 100.398438 123.507812 C 100.503906 123.519531 100.605469 123.53125 100.710938 123.542969 L 100.710938 123.546875 L 100.710938 123.542969 C 150.996094 129.511719 155.84375 134.449219 161.816406 184.925781 C 167.800781 134.34375 172.652344 129.492188 223.234375 123.507812 C 172.652344 117.519531 167.800781 112.667969 161.816406 62.089844 Z M 161.816406 62.089844 " fill-opacity="1" fill-rule="nonzero"/></g><g clip-path="url(#dba5f2cc12)"><path fill="#29282e" d="M 709.179688 22.707031 C 705.339844 55.136719 702.230469 58.25 669.796875 62.089844 C 669.867188 62.097656 669.933594 62.105469 670 62.113281 C 702.242188 65.9375 705.347656 69.105469 709.179688 101.46875 C 713.015625 69.039062 716.128906 65.925781 748.558594 62.089844 C 716.128906 58.25 713.015625 55.136719 709.179688 22.707031 Z M 709.179688 22.707031 " fill-opacity="1" fill-rule="nonzero"/></g><g clip-path="url(#c25eabae40)"><path fill="#29282e" d="M 763.832031 78.761719 C 758.503906 123.769531 754.1875 128.085938 709.179688 133.414062 C 709.273438 133.425781 709.367188 133.4375 709.457031 133.445312 L 709.460938 133.449219 L 709.460938 133.445312 C 754.203125 138.757812 758.515625 143.152344 763.832031 188.0625 C 769.15625 143.058594 773.472656 138.738281 818.480469 133.414062 C 773.472656 128.085938 769.15625 123.769531 763.832031 78.761719 Z M 763.832031 78.761719 " fill-opacity="1" fill-rule="nonzero"/></g><g clip-path="url(#09ef483124)"><path fill="#ffffff" d="M 818.484375 39.382812 C 814.648438 71.8125 811.535156 74.925781 779.105469 78.761719 C 779.171875 78.769531 779.238281 78.777344 779.304688 78.785156 L 779.308594 78.785156 C 811.546875 82.613281 814.65625 85.78125 818.484375 118.144531 C 822.324219 85.710938 825.4375 82.601562 857.867188 78.761719 C 825.4375 74.925781 822.324219 71.8125 818.484375 39.382812 Z M 818.484375 39.382812 " fill-opacity="1" fill-rule="nonzero"/></g><g clip-path="url(#55a3099691)"><path fill="#ffffff" d="M 759.410156 0 C 757.492188 16.214844 755.9375 17.769531 739.722656 19.6875 C 739.757812 19.691406 739.789062 19.695312 739.824219 19.699219 C 755.941406 21.613281 757.496094 23.195312 759.410156 39.375 C 761.332031 23.160156 762.886719 21.605469 779.097656 19.6875 C 762.886719 17.769531 761.332031 16.214844 759.410156 0 Z M 759.410156 0 " fill-opacity="1" fill-rule="nonzero"/></g><path fill="#807aff" d="M 245.890625 233.835938 C 248.4375 245.386719 247.164062 255.765625 245.203125 258.800781 C 245.203125 258.800781 234.914062 236.675781 206.199219 222.480469 C 177.484375 208.28125 150.828125 223.066406 150.828125 223.066406 C 150.828125 223.066406 151.609375 200.058594 176.015625 193.792969 C 180.523438 188.996094 188.65625 183.320312 202.375 182.828125 C 226.484375 181.949219 224.722656 177.542969 230.210938 180.285156 C 235.699219 183.023438 235.109375 187.625 235.109375 187.625 C 235.109375 187.625 238.734375 189.78125 242.265625 195.851562 C 245.890625 201.917969 240.890625 204.953125 245.105469 213.375 C 248.929688 220.714844 247.261719 230.410156 245.890625 233.835938 Z M 274.410156 372.265625 C 258.335938 322.042969 212.472656 311.078125 212.472656 311.078125 L 176.894531 314.796875 C 176.894531 314.796875 169.347656 315.484375 159.253906 319.691406 C 149.75 323.707031 138.183594 330.753906 128.777344 343.1875 C 109.371094 368.9375 100.941406 416.613281 99.179688 458.808594 C 98.984375 462.917969 98.789062 466.640625 98.394531 469.96875 C 95.355469 500.609375 86.144531 500.023438 83.105469 517.9375 C 79.773438 537.8125 95.355469 555.925781 95.355469 555.925781 L 273.527344 555.925781 C 273.527344 555.925781 284.503906 531.449219 273.527344 502.765625 C 262.648438 473.980469 290.480469 422.488281 274.410156 372.265625 Z M 274.410156 372.265625 " fill-opacity="1" fill-rule="nonzero"/><path fill="#76649b" d="M 159.253906 319.691406 C 149.75 323.707031 138.183594 330.753906 128.777344 343.1875 C 109.371094 368.9375 100.941406 416.613281 99.179688 458.808594 C 98.984375 462.917969 98.789062 466.640625 98.394531 469.96875 C 76.34375 481.519531 38.125 490.820312 21.070312 460.472656 C 0 422.878906 26.558594 334.378906 26.558594 334.378906 L 86.929688 342.796875 L 81.441406 408.585938 C 81.441406 408.585938 86.4375 406.039062 107.609375 365.410156 C 128.285156 325.664062 157.882812 319.886719 159.253906 319.691406 Z M 245.203125 331.34375 C 245.203125 331.34375 232.167969 329.382812 228.835938 365.410156 C 225.503906 401.4375 234.324219 468.5 234.324219 468.5 C 234.324219 468.5 230.210938 466.347656 228.054688 471.828125 C 225.898438 477.3125 157 465.464844 157 465.464844 L 153.179688 534.679688 C 153.179688 534.679688 250.300781 557.097656 278.425781 527.140625 C 306.554688 497.183594 296.363281 425.914062 283.328125 384.992188 C 270.292969 344.070312 255.296875 338 245.203125 331.34375 Z M 95.355469 555.824219 L 98.984375 570.414062 L 270.683594 573.253906 L 273.527344 555.824219 Z M 95.355469 555.824219 " fill-opacity="1" fill-rule="nonzero"/><g clip-path="url(#8b741347d0)"><path fill="#ff7074" d="M 9.703125 239.707031 L 56.449219 237.945312 C 59.878906 237.847656 63.015625 239.609375 64.683594 242.644531 L 105.453125 317.636719 C 107.117188 320.769531 104.765625 324.488281 101.238281 324.292969 L 54.785156 322.140625 L 6.859375 244.996094 C 5.488281 242.742188 7.054688 239.808594 9.703125 239.707031 Z M 157.785156 427.089844 L 133.382812 424.152344 L 136.617188 398.601562 C 136.8125 396.738281 135.246094 395.171875 133.382812 395.367188 C 132.109375 395.566406 131.03125 396.542969 130.835938 397.816406 L 127.011719 423.367188 L 100.0625 420.136719 C 96.925781 419.746094 94.082031 422.09375 93.886719 425.324219 L 93.003906 441.96875 C 92.808594 445.003906 95.160156 447.550781 98.199219 447.746094 L 98.394531 447.746094 C 98.589844 465.464844 99.179688 497.574219 99.472656 512.847656 C 99.570312 517.742188 103.296875 521.757812 108.097656 522.246094 L 133.382812 524.890625 C 138.476562 525.378906 143.085938 521.953125 143.867188 516.960938 L 154.941406 451.5625 L 155.921875 451.660156 C 158.960938 451.855469 161.605469 449.507812 161.804688 446.472656 L 162.683594 432.960938 C 162.785156 429.925781 160.628906 427.382812 157.785156 427.089844 Z M 98.984375 570.414062 L 104.472656 629.445312 L 184.835938 629.445312 L 184.441406 609.277344 L 194.144531 629.445312 L 267.351562 629.445312 L 270.78125 573.253906 Z M 98.984375 570.414062 " fill-opacity="1" fill-rule="nonzero"/></g><path fill="#ffad92" d="M 238.734375 270.839844 C 233.445312 273.582031 228.347656 271.917969 225.601562 270.546875 C 222.171875 278.378906 216.585938 285.230469 209.824219 290.519531 L 212.472656 310.980469 C 212.472656 310.980469 220.410156 316.265625 211.394531 322.824219 C 195.125 334.671875 167.195312 332.320312 166.605469 325.957031 C 166.117188 321.0625 173.5625 316.460938 176.992188 314.601562 L 178.167969 300.796875 C 153.964844 299.625 145.042969 280.140625 145.042969 254.980469 C 145.042969 229.039062 160.429688 202.996094 186.402344 202.996094 C 212.371094 202.996094 229.816406 226.003906 229.816406 251.945312 C 231.972656 249.007812 235.699219 245.386719 240.402344 247.933594 C 247.652344 252.042969 246.574219 266.828125 238.734375 270.839844 Z M 25.480469 337.019531 L 86.734375 346.320312 L 86.734375 332.8125 C 89.867188 315.582031 73.992188 314.40625 73.992188 314.40625 C 73.992188 314.40625 82.027344 304.222656 80.167969 298.449219 C 77.421875 289.832031 70.5625 294.628906 70.5625 294.628906 C 70.5625 294.628906 74.777344 289.050781 71.640625 284.546875 C 68.503906 280.042969 62.625 278.671875 62.625 278.671875 C 62.625 278.671875 66.640625 276.03125 64.191406 271.035156 C 61.839844 266.042969 49.492188 263.402344 40.964844 269.175781 C 32.4375 275.050781 28.125 279.75 28.125 279.75 C 28.125 279.75 24.695312 271.527344 28.125 268.882812 C 31.558594 266.238281 50.472656 251.457031 35.871094 250.671875 C 21.265625 249.890625 5.390625 267.414062 6.957031 277.398438 C 8.527344 287.386719 25.578125 320.964844 25.578125 320.964844 Z M 157 465.5625 C 157 465.5625 152.886719 457.535156 148.671875 453.421875 C 144.457031 449.3125 147.789062 444.613281 141.222656 443.144531 C 135.246094 441.871094 131.617188 450.78125 136.027344 459.785156 C 129.855469 458.515625 123.191406 457.535156 117.703125 457.535156 C 102.511719 457.339844 94.277344 464.683594 95.0625 471.046875 C 95.945312 477.410156 102.21875 476.136719 108.980469 473.980469 C 115.742188 471.828125 119.761719 472.90625 119.761719 472.90625 C 119.761719 472.90625 111.917969 475.449219 106.921875 482.988281 C 101.824219 490.625 109.46875 495.8125 109.46875 495.8125 C 109.46875 495.8125 107.117188 498.164062 107.117188 504.039062 C 107.117188 509.910156 114.273438 512.652344 114.273438 512.652344 C 114.273438 512.652344 110.253906 518.332031 115.546875 524.5 C 120.839844 530.566406 153.179688 534.582031 153.179688 534.582031 C 153.179688 534.582031 170.722656 484.261719 157 465.5625 Z M 157 465.5625 " fill-opacity="1" fill-rule="nonzero"/><g clip-path="url(#5b3c5e8a5c)"><path fill="#3f3e3e" d="M 243.242188 229.917969 C 242.851562 229.917969 242.460938 229.625 242.265625 229.234375 C 234.523438 211.121094 221.78125 199.765625 204.238281 195.457031 C 191.105469 192.226562 180.128906 194.382812 180.03125 194.382812 C 179.445312 194.480469 178.855469 194.085938 178.757812 193.5 C 178.660156 192.914062 179.050781 192.324219 179.640625 192.226562 C 180.128906 192.128906 225.210938 183.515625 244.421875 228.351562 C 244.617188 228.941406 244.421875 229.527344 243.832031 229.820312 C 243.539062 229.917969 243.34375 229.917969 243.242188 229.917969 Z M 171.113281 257.625 C 171.40625 257.136719 171.210938 256.449219 170.722656 256.15625 C 169.839844 255.667969 168.664062 254.199219 168.273438 252.828125 C 168.171875 252.238281 168.171875 251.75 168.46875 251.359375 C 169.449219 249.988281 171.996094 250.378906 171.996094 250.378906 C 172.484375 250.476562 173.074219 250.183594 173.269531 249.695312 L 176.113281 241.472656 C 176.308594 240.882812 176.015625 240.296875 175.425781 240.101562 C 174.835938 239.90625 174.25 240.199219 174.054688 240.785156 L 171.503906 248.226562 C 170.230469 248.128906 167.976562 248.324219 166.703125 250.183594 C 166.117188 251.066406 165.917969 252.140625 166.214844 253.414062 C 166.703125 255.46875 168.371094 257.429688 169.742188 258.113281 C 169.9375 258.210938 170.132812 258.210938 170.230469 258.210938 C 170.625 258.210938 170.917969 258.015625 171.113281 257.625 Z M 199.535156 235.597656 C 199.632812 232.464844 195.710938 232.074219 194.242188 234.8125 C 193.554688 236.183594 192.96875 238.140625 193.164062 240.882812 C 193.753906 247.34375 190.519531 246.953125 190.714844 252.339844 C 190.910156 257.722656 198.359375 256.644531 198.359375 247.640625 C 198.359375 242.351562 199.535156 238.140625 199.535156 235.597656 Z M 148.277344 234.226562 C 148.277344 234.226562 159.453125 222.480469 161.804688 212.6875 L 207.277344 216.996094 C 207.277344 216.996094 204.335938 240.199219 229.621094 252.042969 C 229.621094 252.042969 234.324219 246.367188 237.265625 247.148438 C 236.382812 224.535156 219.917969 205.445312 197.574219 201.625 C 195.515625 201.234375 193.359375 200.941406 191.203125 200.746094 C 158.960938 197.90625 148.476562 222.96875 148.277344 234.226562 Z M 166.117188 232.464844 C 166.214844 229.625 162.585938 229.234375 161.3125 231.777344 C 160.628906 233.050781 160.136719 234.8125 160.332031 237.261719 C 160.921875 243.136719 157.882812 242.839844 158.078125 247.640625 C 158.175781 252.535156 165.039062 251.554688 165.039062 243.332031 C 165.039062 238.632812 166.117188 234.714844 166.117188 232.464844 Z M 171.703125 225.316406 C 172.191406 224.925781 172.289062 224.242188 171.898438 223.75 C 170.328125 221.5 168.371094 220.324219 166.214844 220.03125 C 162.882812 219.640625 160.332031 221.695312 160.234375 221.792969 C 159.746094 222.183594 159.746094 222.871094 160.136719 223.359375 C 160.527344 223.847656 161.214844 223.847656 161.707031 223.554688 C 161.707031 223.554688 163.664062 221.988281 166.015625 222.28125 C 167.585938 222.480469 168.957031 223.457031 170.132812 225.121094 C 170.328125 225.414062 170.722656 225.613281 171.015625 225.613281 C 171.308594 225.511719 171.503906 225.414062 171.703125 225.316406 Z M 202.769531 226.296875 C 203.160156 225.808594 203.0625 225.121094 202.671875 224.730469 C 195.515625 218.757812 189.929688 224.730469 189.832031 224.828125 C 189.441406 225.316406 189.441406 226.003906 189.929688 226.394531 C 190.421875 226.785156 191.105469 226.785156 191.5 226.296875 C 191.695312 226.101562 195.808594 221.792969 201.296875 226.394531 C 201.496094 226.589844 201.789062 226.6875 201.984375 226.6875 C 202.277344 226.6875 202.574219 226.492188 202.769531 226.296875 Z M 190.519531 263.105469 C 190.8125 262.617188 190.617188 261.933594 190.125 261.636719 C 189.636719 261.34375 188.949219 261.539062 188.65625 262.03125 C 184.636719 269.371094 171.703125 267.414062 171.605469 267.414062 C 171.015625 267.316406 170.425781 267.707031 170.328125 268.296875 C 170.230469 268.882812 170.625 269.46875 171.210938 269.566406 C 171.40625 269.566406 173.171875 269.863281 175.523438 269.863281 C 180.128906 269.863281 187.382812 268.882812 190.519531 263.105469 Z M 47.824219 284.253906 C 53.214844 277.695312 62.230469 279.847656 62.328125 279.847656 C 62.917969 279.945312 63.507812 279.652344 63.605469 279.0625 C 63.703125 278.476562 63.40625 277.890625 62.820312 277.792969 C 62.429688 277.695312 52.433594 275.34375 46.0625 282.882812 C 45.667969 283.371094 45.765625 284.058594 46.160156 284.449219 C 46.355469 284.644531 46.648438 284.742188 46.84375 284.742188 C 47.335938 284.644531 47.628906 284.449219 47.824219 284.253906 Z M 59.292969 299.230469 C 63.113281 295.707031 70.464844 295.707031 70.5625 295.707031 C 71.148438 295.707031 71.640625 295.21875 71.640625 294.628906 C 71.640625 294.042969 71.148438 293.554688 70.5625 293.554688 C 70.171875 293.554688 62.328125 293.554688 57.820312 297.664062 C 57.332031 298.058594 57.332031 298.742188 57.722656 299.230469 C 57.917969 299.425781 58.214844 299.625 58.507812 299.625 C 58.800781 299.527344 59.097656 299.425781 59.292969 299.230469 Z M 78.792969 321.453125 C 78.792969 317.246094 74.875 313.722656 74.679688 313.621094 C 74.1875 313.230469 73.503906 313.230469 73.109375 313.722656 C 72.71875 314.210938 72.71875 314.894531 73.207031 315.289062 C 73.207031 315.289062 76.539062 318.320312 76.539062 321.554688 C 76.539062 322.140625 77.03125 322.628906 77.617188 322.628906 C 78.207031 322.628906 78.792969 322.042969 78.792969 321.453125 Z M 36.652344 332.125 C 37.046875 331.734375 37.046875 331.050781 36.652344 330.558594 L 26.363281 320.183594 C 25.972656 319.789062 25.285156 319.789062 24.792969 320.183594 C 24.402344 320.574219 24.402344 321.257812 24.792969 321.75 L 35.085938 332.125 C 35.28125 332.320312 35.574219 332.417969 35.871094 332.417969 C 36.164062 332.417969 36.457031 332.320312 36.652344 332.125 Z M 28.714844 280.730469 C 29.203125 280.433594 29.402344 279.75 29.105469 279.261719 C 25.972656 273.582031 27.929688 268.882812 35.476562 264.085938 C 35.96875 263.792969 36.164062 263.105469 35.769531 262.617188 C 35.476562 262.128906 34.792969 261.933594 34.300781 262.324219 C 25.773438 267.707031 23.519531 273.679688 27.148438 280.335938 C 27.34375 280.730469 27.734375 280.925781 28.125 280.925781 C 28.324219 280.925781 28.519531 280.828125 28.714844 280.730469 Z M 243.539062 489.742188 C 244.027344 489.351562 244.125 488.667969 243.734375 488.175781 C 235.011719 476.332031 231.484375 473.785156 231.386719 473.589844 C 230.894531 473.199219 230.210938 473.296875 229.914062 473.785156 C 229.523438 474.277344 229.621094 474.960938 230.113281 475.351562 C 230.113281 475.351562 233.640625 477.996094 242.066406 489.449219 C 242.265625 489.742188 242.65625 489.941406 242.949219 489.941406 C 243.144531 489.941406 243.34375 489.84375 243.539062 489.742188 Z M 256.375 483.773438 C 256.867188 483.378906 256.867188 482.695312 256.472656 482.207031 C 246.085938 469.578125 234.914062 467.421875 234.421875 467.324219 C 233.835938 467.226562 233.246094 467.617188 233.148438 468.207031 C 233.050781 468.792969 233.445312 469.382812 234.03125 469.480469 C 234.128906 469.480469 244.910156 471.632812 254.710938 483.578125 C 254.90625 483.871094 255.199219 483.96875 255.59375 483.96875 C 255.886719 484.066406 256.179688 483.96875 256.375 483.773438 Z M 184.050781 501.492188 C 184.050781 501.394531 184.148438 501.296875 184.148438 501.199219 C 184.148438 501.003906 184.148438 500.808594 184.050781 500.609375 C 183.363281 482.109375 174.25 468.109375 174.152344 467.914062 C 173.859375 467.421875 173.171875 467.226562 172.679688 467.617188 C 172.191406 467.914062 171.996094 468.597656 172.386719 469.085938 C 172.484375 469.183594 175.621094 474.082031 178.269531 481.8125 L 162.488281 479.855469 C 161.902344 479.757812 161.3125 480.246094 161.3125 480.835938 C 161.214844 481.421875 161.707031 482.011719 162.292969 482.011719 L 178.757812 484.066406 C 178.757812 484.066406 178.855469 484.066406 178.855469 484.066406 C 178.855469 484.066406 178.953125 484.066406 178.953125 484.066406 C 180.324219 488.667969 181.5 494.050781 181.894531 499.925781 L 161.707031 497.96875 C 161.117188 497.871094 160.527344 498.359375 160.527344 498.945312 C 160.429688 499.535156 160.921875 500.121094 161.507812 500.121094 L 181.992188 502.078125 C 182.089844 506.582031 181.601562 511.378906 180.324219 516.273438 L 158.960938 513.730469 C 158.375 513.632812 157.785156 514.121094 157.785156 514.707031 C 157.6875 515.296875 158.175781 515.882812 158.765625 515.882812 L 179.738281 518.429688 C 178.757812 521.855469 177.289062 525.28125 175.425781 528.707031 L 156.019531 525.085938 C 155.433594 524.988281 154.84375 525.378906 154.746094 525.96875 C 154.648438 526.554688 155.042969 527.140625 155.628906 527.238281 L 174.25 530.664062 C 172.878906 532.917969 171.308594 535.167969 169.546875 537.324219 C 169.152344 537.8125 169.25 538.496094 169.742188 538.890625 C 169.9375 539.085938 170.230469 539.085938 170.425781 539.085938 C 170.722656 539.085938 171.015625 538.988281 171.308594 538.695312 C 173.464844 536.050781 175.230469 533.503906 176.796875 530.863281 C 177.089844 530.664062 177.289062 530.46875 177.386719 530.078125 C 177.386719 529.980469 177.386719 529.882812 177.386719 529.785156 C 179.640625 525.769531 181.207031 521.855469 182.285156 517.9375 C 182.382812 517.839844 182.382812 517.644531 182.382812 517.546875 C 182.382812 517.546875 182.382812 517.449219 182.382812 517.449219 C 183.65625 511.96875 184.148438 506.582031 184.050781 501.492188 Z M 87.222656 428.261719 C 87.613281 422.78125 83.792969 418.667969 82.617188 417.496094 L 82.617188 408.585938 C 82.617188 407.996094 82.125 407.507812 81.539062 407.507812 C 80.949219 407.507812 80.460938 407.996094 80.460938 408.585938 L 80.460938 417.984375 C 80.460938 418.277344 80.558594 418.570312 80.851562 418.765625 C 80.851562 418.765625 85.457031 422.878906 85.066406 428.164062 C 85.066406 428.753906 85.457031 429.242188 86.046875 429.339844 C 86.046875 429.339844 86.144531 429.339844 86.144531 429.339844 C 86.636719 429.339844 87.125 428.851562 87.222656 428.261719 Z M 85.261719 364.335938 L 80.851562 363.648438 L 82.519531 346.714844 C 82.617188 346.125 82.125 345.539062 81.539062 345.539062 C 80.949219 345.441406 80.363281 345.929688 80.363281 346.515625 L 78.695312 363.355469 L 68.40625 361.59375 L 69.972656 343.679688 C 70.074219 343.089844 69.582031 342.503906 68.996094 342.503906 C 68.40625 342.40625 67.816406 342.894531 67.816406 343.480469 L 66.25 361.203125 L 51.355469 358.753906 L 54.292969 341.328125 C 54.390625 340.742188 54 340.152344 53.410156 340.054688 C 52.824219 339.957031 52.234375 340.347656 52.136719 340.9375 L 49.199219 358.363281 L 33.910156 355.914062 L 37.046875 338.683594 C 37.144531 338.097656 36.75 337.511719 36.164062 337.414062 C 35.574219 337.316406 34.988281 337.707031 34.890625 338.292969 L 31.753906 355.523438 L 21.460938 353.859375 C 20.875 353.761719 20.285156 354.152344 20.1875 354.742188 C 20.089844 355.328125 20.484375 355.914062 21.070312 356.011719 L 32.4375 357.875 L 49.882812 360.710938 L 84.871094 366.390625 C 84.96875 366.390625 84.96875 366.390625 85.066406 366.390625 C 85.558594 366.390625 86.046875 366 86.144531 365.507812 C 86.242188 364.921875 85.851562 364.433594 85.261719 364.335938 Z M 193.949219 629.445312 C 194.535156 629.25 194.832031 628.664062 194.632812 628.074219 C 188.65625 608.105469 168.171875 590.382812 167.390625 589.601562 C 166.898438 589.210938 166.214844 589.210938 165.820312 589.699219 C 165.429688 590.1875 165.527344 590.875 165.917969 591.265625 C 166.117188 591.460938 186.695312 609.378906 192.578125 628.761719 C 192.675781 629.25 193.164062 629.542969 193.65625 629.542969 C 193.753906 629.445312 193.851562 629.445312 193.949219 629.445312 Z M 264.804688 569.238281 C 264.804688 568.652344 264.316406 568.160156 263.726562 568.160156 C 259.609375 568.160156 257.550781 566.59375 255.394531 565.027344 C 253.042969 563.265625 250.691406 561.503906 245.792969 561.503906 C 245.695312 561.503906 245.695312 561.503906 245.597656 561.503906 C 240.890625 561.503906 238.441406 563.265625 236.089844 564.929688 C 233.933594 566.496094 231.875 567.867188 227.859375 567.867188 C 227.757812 567.867188 227.757812 567.867188 227.660156 567.867188 C 223.546875 567.867188 221.488281 566.300781 219.332031 564.734375 C 216.980469 562.972656 214.628906 561.210938 209.726562 561.210938 C 204.925781 561.210938 202.476562 562.875 200.121094 564.636719 C 197.964844 566.203125 195.910156 567.574219 191.890625 567.574219 C 191.792969 567.574219 191.792969 567.574219 191.695312 567.574219 C 187.578125 567.574219 185.519531 566.007812 183.363281 564.441406 C 181.011719 562.679688 178.660156 560.917969 173.757812 560.917969 C 168.957031 560.917969 166.507812 562.582031 164.15625 564.34375 C 162 565.910156 159.941406 567.378906 155.824219 567.28125 C 151.707031 567.28125 149.652344 565.714844 147.496094 564.148438 C 145.144531 562.386719 142.789062 560.625 137.890625 560.625 C 137.792969 560.625 137.792969 560.625 137.695312 560.625 C 132.992188 560.625 130.539062 562.386719 128.285156 564.050781 C 126.128906 565.617188 124.070312 566.988281 120.054688 566.988281 C 119.957031 566.988281 119.957031 566.988281 119.859375 566.988281 C 115.742188 566.988281 113.683594 565.421875 111.527344 563.855469 C 109.175781 562.089844 106.824219 560.328125 101.921875 560.328125 C 101.335938 560.328125 100.84375 560.820312 100.84375 561.40625 C 100.84375 561.992188 101.335938 562.484375 101.921875 562.484375 C 106.039062 562.484375 108.097656 564.050781 110.253906 565.617188 C 112.605469 567.378906 114.957031 569.140625 119.859375 569.140625 C 124.660156 569.140625 127.109375 567.476562 129.460938 565.714844 C 131.617188 564.148438 133.675781 562.679688 137.792969 562.777344 C 141.910156 562.777344 143.964844 564.34375 146.121094 565.910156 C 148.476562 567.671875 150.828125 569.433594 155.726562 569.433594 C 160.527344 569.433594 162.980469 567.769531 165.332031 566.007812 C 167.488281 564.441406 169.546875 562.972656 173.660156 563.070312 C 177.777344 563.070312 179.835938 564.636719 181.992188 566.203125 C 184.34375 567.964844 186.695312 569.726562 191.597656 569.726562 C 191.695312 569.726562 191.695312 569.726562 191.792969 569.726562 C 196.496094 569.726562 198.945312 567.964844 201.199219 566.300781 C 203.355469 564.734375 205.414062 563.363281 209.433594 563.363281 C 209.53125 563.363281 209.53125 563.363281 209.628906 563.363281 C 213.746094 563.363281 215.804688 564.929688 217.960938 566.496094 C 220.3125 568.257812 222.664062 570.023438 227.5625 570.023438 C 227.660156 570.023438 227.660156 570.023438 227.757812 570.023438 C 232.464844 570.023438 234.914062 568.257812 237.265625 566.59375 C 239.421875 565.027344 241.480469 563.558594 245.597656 563.65625 C 249.710938 563.65625 251.769531 565.222656 253.925781 566.789062 C 256.277344 568.554688 258.628906 570.316406 263.53125 570.316406 C 264.316406 570.316406 264.804688 569.824219 264.804688 569.238281 Z M 274.410156 519.703125 C 284.40625 507.171875 289.109375 473.003906 286.167969 434.824219 C 282.933594 392.921875 271.371094 356.210938 255.199219 336.628906 C 254.808594 336.140625 254.121094 336.140625 253.632812 336.433594 C 253.140625 336.824219 253.140625 337.511719 253.4375 338 C 289.011719 381.074219 292.636719 493.171875 272.644531 518.332031 C 253.042969 543.097656 185.324219 527.042969 184.636719 526.847656 C 184.050781 526.75 183.460938 527.042969 183.363281 527.632812 C 183.265625 528.21875 183.558594 528.804688 184.148438 528.902344 C 185.714844 529.296875 206.984375 534.289062 229.132812 534.289062 C 246.96875 534.484375 265.292969 531.253906 274.410156 519.703125 Z M 242.363281 257.625 L 238.148438 254.785156 C 235.5 253.023438 231.972656 254.296875 230.992188 257.234375 C 230.210938 259.679688 231.386719 262.226562 233.835938 263.203125 C 234.816406 263.597656 235.699219 264.085938 236.285156 264.574219 C 237.363281 265.652344 236.1875 269.175781 235.011719 272.015625 C 234.523438 273.191406 234.71875 274.464844 235.402344 275.441406 L 234.523438 277.988281 C 234.128906 278.964844 234.71875 279.945312 235.601562 280.335938 C 236.480469 280.628906 237.558594 280.238281 237.855469 279.359375 L 238.933594 276.910156 C 240.207031 276.714844 241.285156 275.832031 241.675781 274.5625 L 245.007812 264.671875 C 245.695312 262.03125 244.714844 259.191406 242.363281 257.625 Z M 236.480469 280.730469 C 236.675781 280.140625 236.382812 279.554688 235.796875 279.359375 C 235.207031 279.164062 234.621094 279.457031 234.421875 280.042969 C 234.226562 280.53125 224.523438 306.476562 208.550781 330.558594 C 202.179688 333.691406 195.613281 335.160156 191.695312 335.847656 C 177.09375 338.390625 164.9375 336.335938 162.195312 332.910156 C 160.628906 331.050781 160.039062 329.1875 160.332031 327.132812 C 161.019531 322.140625 166.996094 318.027344 166.996094 318.027344 C 167.488281 317.734375 167.585938 317.050781 167.292969 316.558594 C 166.996094 316.070312 166.3125 315.972656 165.820312 316.265625 C 165.527344 316.460938 159.058594 320.867188 158.175781 326.839844 C 157.785156 329.484375 158.570312 332.027344 160.527344 334.378906 C 163.078125 337.511719 170.230469 339.175781 178.953125 339.175781 C 183.070312 339.175781 187.578125 338.78125 192.085938 338 C 195.515625 337.414062 200.808594 336.238281 206.296875 333.984375 C 192.96875 353.273438 175.71875 370.40625 156.414062 371.089844 C 154.941406 366.292969 147.199219 338.390625 156.316406 292.183594 C 158.273438 294.140625 160.628906 295.804688 163.273438 297.273438 C 167.390625 299.527344 171.996094 300.699219 176.992188 300.992188 L 175.816406 314.796875 C 175.71875 315.386719 176.210938 315.875 176.796875 315.972656 C 176.796875 315.972656 176.894531 315.972656 176.894531 315.972656 C 177.484375 315.972656 177.972656 315.582031 177.972656 314.992188 L 179.148438 301.191406 C 179.148438 301.089844 179.148438 301.089844 179.148438 300.992188 C 186.988281 300.992188 195.910156 298.644531 205.707031 294.042969 C 206.296875 293.75 206.492188 293.160156 206.199219 292.574219 C 205.90625 291.988281 205.316406 291.792969 204.730469 292.085938 C 188.265625 299.820312 174.542969 300.992188 164.15625 295.414062 C 149.0625 287.289062 145.925781 267.414062 145.925781 267.21875 C 145.828125 266.632812 145.242188 266.238281 144.652344 266.335938 C 144.066406 266.433594 143.671875 267.023438 143.769531 267.609375 C 143.867188 268.296875 145.828125 280.828125 154.355469 290.324219 C 144.164062 340.054688 153.375 369.425781 154.453125 372.363281 C 153.964844 375.984375 147.886719 419.160156 127.207031 419.160156 C 126.914062 419.160156 126.621094 419.160156 126.324219 419.160156 C 112.703125 418.375 106.234375 385.871094 101.042969 359.832031 C 97.609375 342.699219 94.671875 327.816406 90.164062 323.121094 C 89.769531 322.726562 89.085938 322.628906 88.59375 323.121094 C 88.203125 323.511719 88.105469 324.195312 88.59375 324.683594 C 92.613281 328.992188 95.652344 344.167969 98.886719 360.320312 C 104.472656 388.515625 110.839844 420.527344 126.226562 421.410156 C 126.621094 421.410156 126.914062 421.410156 127.207031 421.410156 C 149.0625 421.410156 155.53125 380.292969 156.511719 373.339844 C 174.542969 372.65625 192.578125 358.949219 210.21875 332.320312 C 216.78125 328.992188 223.054688 323.902344 225.800781 316.265625 C 225.996094 315.679688 225.703125 315.089844 225.113281 314.894531 C 224.523438 314.699219 223.9375 314.992188 223.742188 315.582031 C 221.683594 321.257812 217.46875 325.371094 212.667969 328.40625 C 212.960938 327.917969 213.351562 327.425781 213.648438 326.839844 C 227.855469 303.929688 236.382812 280.925781 236.480469 280.730469 Z M 101.238281 233.933594 L 116.527344 224.046875 C 116.820312 223.847656 117.015625 223.457031 117.015625 223.066406 C 117.015625 222.675781 116.820312 222.378906 116.527344 222.183594 L 101.238281 213.277344 C 100.941406 213.082031 100.453125 213.082031 100.160156 213.277344 C 99.867188 213.472656 99.570312 213.863281 99.570312 214.253906 L 99.570312 233.050781 C 99.570312 233.441406 99.765625 233.835938 100.160156 234.03125 C 100.355469 234.128906 100.453125 234.128906 100.648438 234.128906 C 100.84375 234.128906 101.042969 234.03125 101.238281 233.933594 Z M 113.78125 223.261719 L 101.726562 231.09375 L 101.726562 216.113281 Z M 306.75 220.617188 C 306.75 221.011719 306.554688 221.304688 306.261719 221.597656 L 290.972656 231.386719 C 290.777344 231.484375 290.578125 231.582031 290.382812 231.582031 C 290.1875 231.582031 289.992188 231.582031 289.894531 231.484375 C 289.5 231.289062 289.304688 230.898438 289.304688 230.507812 L 289.304688 222.675781 L 275.683594 231.484375 C 275.488281 231.582031 275.289062 231.679688 275.09375 231.679688 C 274.898438 231.679688 274.703125 231.679688 274.605469 231.582031 C 274.214844 231.386719 274.015625 230.996094 274.015625 230.605469 L 274.015625 211.710938 C 274.015625 211.316406 274.214844 210.925781 274.605469 210.730469 C 274.898438 210.535156 275.390625 210.535156 275.683594 210.730469 L 289.304688 218.757812 L 289.304688 211.710938 C 289.304688 211.316406 289.5 210.925781 289.894531 210.730469 C 290.1875 210.535156 290.675781 210.535156 290.972656 210.730469 L 306.261719 219.640625 C 306.554688 219.835938 306.75 220.226562 306.75 220.617188 Z M 288.324219 220.714844 L 276.269531 213.667969 L 276.269531 228.449219 Z M 303.515625 220.714844 L 291.460938 213.667969 L 291.460938 228.449219 Z M 149.453125 158.84375 C 149.453125 158.746094 149.453125 158.746094 149.453125 158.648438 L 149.453125 157.863281 C 149.453125 156.394531 148.179688 155.125 146.710938 155.125 L 128.480469 155.125 C 127.011719 155.125 125.738281 156.394531 125.738281 157.863281 L 125.738281 174.019531 C 124.757812 173.332031 123.484375 172.941406 122.113281 172.941406 C 118.976562 172.941406 116.429688 175.191406 116.429688 178.03125 C 116.429688 180.871094 118.976562 183.121094 122.113281 183.121094 C 125.050781 183.121094 127.503906 181.164062 127.796875 178.523438 C 127.796875 178.425781 127.894531 178.324219 127.894531 178.226562 L 127.894531 165.5 L 147.296875 165.5 L 147.296875 174.117188 C 146.320312 173.429688 145.042969 173.039062 143.769531 173.039062 C 140.632812 173.039062 138.085938 175.292969 138.085938 178.128906 C 138.085938 180.96875 140.632812 183.222656 143.769531 183.222656 C 146.710938 183.222656 149.160156 181.164062 149.453125 178.621094 C 149.453125 178.523438 149.554688 178.425781 149.554688 178.324219 L 149.554688 158.84375 Z M 275.585938 273.289062 L 275.585938 288.460938 C 276.859375 289.34375 277.742188 290.8125 277.742188 292.378906 C 277.742188 292.574219 277.742188 292.671875 277.742188 292.867188 C 277.742188 292.769531 277.839844 292.671875 277.839844 292.574219 L 277.839844 279.847656 L 275.683594 279.847656 L 275.683594 273.289062 Z M 299.300781 273.289062 C 299.300781 273.191406 299.300781 273.191406 299.300781 273.09375 L 299.300781 279.847656 L 297.144531 279.847656 L 297.144531 288.460938 C 298.417969 289.34375 299.300781 290.8125 299.300781 292.378906 C 299.300781 292.574219 299.300781 292.671875 299.300781 292.867188 C 299.300781 292.769531 299.398438 292.671875 299.398438 292.574219 L 299.398438 273.289062 Z M 276.664062 293.652344 C 276.074219 293.652344 275.585938 293.160156 275.585938 292.574219 L 275.585938 288.460938 C 274.605469 287.777344 273.332031 287.386719 271.957031 287.386719 C 268.824219 287.386719 266.273438 289.636719 266.273438 292.476562 C 266.273438 295.316406 268.824219 297.566406 271.957031 297.566406 C 274.898438 297.566406 277.347656 295.609375 277.644531 292.964844 C 277.546875 293.359375 277.152344 293.652344 276.664062 293.652344 Z M 275.585938 288.460938 L 275.585938 292.574219 C 275.585938 293.160156 276.074219 293.652344 276.664062 293.652344 C 277.152344 293.652344 277.546875 293.359375 277.644531 292.867188 C 277.644531 292.671875 277.644531 292.574219 277.644531 292.378906 C 277.742188 290.8125 276.859375 289.441406 275.585938 288.460938 Z M 298.222656 293.652344 C 297.636719 293.652344 297.144531 293.160156 297.144531 292.574219 L 297.144531 288.460938 C 296.164062 287.777344 294.890625 287.386719 293.617188 287.386719 C 290.480469 287.386719 287.933594 289.636719 287.933594 292.476562 C 287.933594 295.316406 290.480469 297.566406 293.617188 297.566406 C 296.558594 297.566406 299.007812 295.511719 299.300781 292.964844 C 299.105469 293.359375 298.714844 293.652344 298.222656 293.652344 Z M 297.144531 288.460938 L 297.144531 292.574219 C 297.144531 293.160156 297.636719 293.652344 298.222656 293.652344 C 298.714844 293.652344 299.105469 293.359375 299.203125 292.867188 C 299.203125 292.671875 299.203125 292.574219 299.203125 292.378906 C 299.300781 290.8125 298.417969 289.441406 297.144531 288.460938 Z M 298.222656 272.210938 C 298.8125 272.210938 299.203125 272.601562 299.300781 273.09375 L 299.300781 272.308594 C 299.300781 270.839844 298.027344 269.566406 296.558594 269.566406 L 278.328125 269.566406 C 276.859375 269.566406 275.585938 270.839844 275.585938 272.308594 L 275.585938 273.289062 C 275.585938 272.699219 276.074219 272.210938 276.664062 272.210938 C 277.25 272.210938 277.742188 272.699219 277.742188 273.289062 L 277.742188 279.847656 L 297.144531 279.847656 L 297.144531 273.289062 C 297.144531 272.699219 297.636719 272.210938 298.222656 272.210938 Z M 276.664062 272.210938 C 276.074219 272.210938 275.585938 272.699219 275.585938 273.289062 L 275.585938 279.847656 L 277.742188 279.847656 L 277.742188 273.289062 C 277.742188 272.699219 277.25 272.210938 276.664062 272.210938 Z M 299.300781 273.09375 C 299.203125 272.601562 298.8125 272.210938 298.222656 272.210938 C 297.636719 272.210938 297.144531 272.699219 297.144531 273.289062 L 297.144531 279.847656 L 299.300781 279.847656 Z M 277.9375 159.039062 C 277.9375 156.789062 276.171875 155.027344 273.917969 155.027344 L 263.824219 155.027344 L 263.824219 181.753906 C 262.84375 181.066406 261.667969 180.675781 260.296875 180.675781 C 257.160156 180.675781 254.613281 182.925781 254.613281 185.765625 C 254.613281 188.605469 257.160156 190.855469 260.296875 190.855469 C 263.433594 190.855469 265.980469 188.605469 265.980469 185.765625 L 265.980469 164.71875 L 277.9375 164.71875 Z M 128.875 449.800781 C 128.875 449.214844 128.480469 448.722656 127.894531 448.625 L 98.199219 446.667969 C 97.609375 446.667969 97.121094 447.058594 97.023438 447.648438 C 96.925781 448.234375 97.414062 448.722656 98.003906 448.820312 L 127.699219 450.78125 C 127.699219 450.78125 127.699219 450.78125 127.796875 450.78125 C 128.382812 450.78125 128.875 450.386719 128.875 449.800781 Z M 110.253906 496.695312 C 110.351562 496.597656 116.527344 490.527344 122.210938 489.941406 C 122.796875 489.84375 123.289062 489.351562 123.191406 488.765625 C 123.09375 488.175781 122.601562 487.6875 122.015625 487.785156 C 115.644531 488.472656 109.078125 494.835938 108.785156 495.128906 C 108.390625 495.519531 108.390625 496.207031 108.785156 496.695312 C 108.980469 496.890625 109.273438 496.988281 109.566406 496.988281 C 109.761719 496.988281 110.058594 496.890625 110.253906 496.695312 Z M 115.25 513.4375 C 115.25 513.4375 117.898438 509.519531 125.148438 508.539062 C 125.738281 508.441406 126.128906 507.855469 126.03125 507.269531 C 125.933594 506.679688 125.347656 506.289062 124.757812 506.386719 C 116.527344 507.660156 113.488281 512.066406 113.390625 512.261719 C 113.09375 512.75 113.195312 513.4375 113.683594 513.730469 C 113.878906 513.828125 114.074219 513.925781 114.273438 513.925781 C 114.761719 513.828125 115.054688 513.730469 115.25 513.4375 Z M 149.945312 463.214844 C 150.140625 462.625 149.847656 462.039062 149.257812 461.84375 C 141.125 459.101562 136.324219 458.808594 136.125 458.808594 C 135.539062 458.808594 135.046875 459.199219 134.949219 459.785156 C 134.949219 460.375 135.34375 460.863281 135.929688 460.960938 C 135.929688 460.960938 140.632812 461.253906 148.476562 463.898438 C 148.574219 463.898438 148.671875 463.996094 148.867188 463.996094 C 149.355469 463.898438 149.847656 463.605469 149.945312 463.214844 Z M 100.746094 476.820312 C 104.765625 476.722656 108 475.648438 110.941406 474.765625 C 114.273438 473.6875 116.820312 472.90625 119.464844 473.980469 C 120.054688 474.179688 120.640625 473.980469 120.9375 473.394531 C 121.132812 472.808594 120.9375 472.21875 120.347656 471.925781 C 117.015625 470.554688 113.878906 471.535156 110.351562 472.710938 C 107.609375 473.589844 104.570312 474.570312 100.84375 474.667969 C 98.789062 474.667969 97.414062 474.277344 96.730469 473.199219 C 95.554688 471.535156 96.433594 468.5 96.828125 467.519531 C 97.023438 466.933594 96.828125 466.347656 96.238281 466.050781 C 95.652344 465.855469 95.0625 466.050781 94.769531 466.640625 C 94.671875 466.835938 92.808594 471.339844 94.867188 474.375 C 95.945312 475.941406 97.808594 476.722656 100.550781 476.722656 C 100.550781 476.820312 100.648438 476.820312 100.746094 476.820312 Z M 106.429688 487.101562 C 106.429688 482.792969 118.191406 474.765625 125.542969 470.75 C 126.03125 470.457031 126.226562 469.773438 125.933594 469.28125 C 125.640625 468.792969 124.953125 468.597656 124.464844 468.890625 C 122.40625 470.066406 104.277344 480.148438 104.277344 487.199219 C 104.277344 487.785156 104.765625 488.277344 105.351562 488.277344 C 105.941406 488.277344 106.429688 487.6875 106.429688 487.101562 Z M 106.429688 487.101562 " fill-opacity="1" fill-rule="nonzero"/></g><path fill="#ffffff" d="M 202.574219 242.449219 C 202.472656 243.429688 201.199219 244.113281 199.730469 244.015625 C 198.164062 243.917969 196.988281 243.136719 197.085938 242.15625 C 197.183594 241.175781 198.457031 240.492188 199.925781 240.589844 C 201.496094 240.589844 202.671875 241.472656 202.574219 242.449219 Z M 166.507812 236.871094 C 165.136719 236.773438 163.960938 237.457031 163.863281 238.339844 C 163.863281 239.21875 164.9375 240.003906 166.3125 240.101562 C 167.683594 240.199219 168.859375 239.511719 168.957031 238.632812 C 169.054688 237.75 167.878906 236.96875 166.507812 236.871094 Z M 166.507812 236.871094 " fill-opacity="1" fill-rule="nonzero"/><g clip-path="url(#98c86f63bc)"><path fill="#fec619" d="M 213.210938 46.746094 C 210.089844 73.113281 207.5625 75.640625 181.195312 78.761719 C 181.25 78.769531 181.304688 78.773438 181.359375 78.78125 C 207.570312 81.890625 210.097656 84.464844 213.210938 110.777344 C 216.332031 84.410156 218.863281 81.882812 245.226562 78.761719 C 218.863281 75.640625 216.332031 73.113281 213.210938 46.746094 Z M 213.210938 46.746094 " fill-opacity="1" fill-rule="nonzero"/></g><g clip-path="url(#25ad1c8384)"><path fill="#ffffff" d="M 838.175781 6.238281 C 836.253906 22.449219 834.699219 24.007812 818.488281 25.925781 C 818.519531 25.929688 818.554688 25.933594 818.585938 25.9375 L 818.589844 25.9375 C 834.707031 27.851562 836.257812 29.433594 838.175781 45.613281 C 840.09375 29.398438 841.648438 27.84375 857.863281 25.925781 C 841.648438 24.007812 840.09375 22.449219 838.175781 6.238281 Z M 838.175781 6.238281 " fill-opacity="1" fill-rule="nonzero"/></g></svg>